<mxfile host="app.diagrams.net" agent="Mozilla/5.0 (X11; Linux x86_64; rv:128.0) Gecko/20100101 Firefox/128.0" version="27.0.6">
  <diagram name="Page-1" id="t2Y7v9IfT3PWE-Zk0duQ">
    <mxGraphModel dx="3000" dy="2612" grid="1" gridSize="10" guides="1" tooltips="1" connect="1" arrows="1" fold="1" page="1" pageScale="1" pageWidth="850" pageHeight="1100" math="0" shadow="0">
      <root>
        <mxCell id="0" />
        <mxCell id="1" parent="0" />
        <mxCell id="yUYCpwI-ni2RMW_3PlUK-1" value="&lt;div&gt;&lt;br&gt;&lt;/div&gt;&lt;div&gt;&lt;br&gt;&lt;/div&gt;&lt;div&gt;&lt;font style=&quot;font-size: 17px;&quot;&gt;&lt;strong data-end=&quot;480&quot; data-start=&quot;465&quot;&gt;&lt;font&gt;MAIN NF.&lt;/font&gt;&lt;/strong&gt;&lt;font&gt;&lt;font&gt;&lt;strong data-end=&quot;480&quot; data-start=&quot;465&quot;&gt;&lt;font&gt;&lt;br&gt;&lt;/font&gt;&lt;/strong&gt;&lt;/font&gt;&lt;/font&gt;&lt;/font&gt;&lt;/div&gt;&lt;div&gt;&lt;b&gt;&lt;font style=&quot;font-size: 13px;&quot;&gt;&lt;span data-end=&quot;480&quot; data-start=&quot;465&quot;&gt;&lt;font&gt;&lt;font&gt;WORKFLOW&lt;/font&gt;&lt;font&gt;&lt;br&gt;&lt;/font&gt;&lt;/font&gt;&lt;/span&gt;&lt;/font&gt;&lt;/b&gt;&lt;/div&gt;&lt;div&gt;&lt;b&gt;&lt;font style=&quot;font-size: 13px;&quot;&gt;&lt;span data-end=&quot;480&quot; data-start=&quot;465&quot;&gt;&lt;font&gt;&lt;font&gt;&lt;br&gt;&lt;/font&gt;&lt;/font&gt;&lt;/span&gt;&lt;/font&gt;&lt;/b&gt;&lt;/div&gt;&lt;div&gt;&lt;b&gt;&lt;font style=&quot;font-size: 13px;&quot;&gt;&lt;span data-end=&quot;480&quot; data-start=&quot;465&quot;&gt;&lt;font&gt;&lt;span style=&quot;white-space: pre;&quot;&gt;&#x9;&lt;/span&gt;&lt;/font&gt;&lt;/span&gt;&lt;/font&gt;&lt;font&gt;&lt;span data-end=&quot;480&quot; data-start=&quot;465&quot;&gt;&lt;font&gt;&lt;font&gt;IMPORTANDO WORKFLOWS:&lt;/font&gt;&lt;font&gt;&lt;br&gt;&lt;/font&gt;&lt;/font&gt;&lt;/span&gt;&lt;/font&gt;&lt;/b&gt;&lt;/div&gt;&lt;div&gt;&lt;b&gt;&lt;font&gt;&lt;font&gt;&lt;span data-end=&quot;480&quot; data-start=&quot;465&quot;&gt;&lt;font&gt;&lt;font&gt;&lt;br&gt;&lt;/font&gt;&lt;/font&gt;&lt;/span&gt;&lt;/font&gt;&lt;/font&gt;&lt;/b&gt;&lt;/div&gt;&lt;div&gt;&lt;b&gt;&lt;font&gt;&lt;font&gt;&lt;sup&gt;&lt;span data-end=&quot;480&quot; data-start=&quot;465&quot;&gt;&lt;span style=&quot;white-space: pre;&quot;&gt;&#x9;&lt;/span&gt;BASECALLING&lt;/span&gt;&lt;/sup&gt;&lt;/font&gt;&lt;/font&gt;&lt;/b&gt;&lt;/div&gt;&lt;b&gt;&lt;font&gt;&lt;font&gt;&lt;sup&gt;&lt;span data-end=&quot;622&quot; data-start=&quot;590&quot;&gt;&lt;span style=&quot;white-space: pre;&quot;&gt;&#x9;&lt;/span&gt;FILTERING_AND_QC_FROM_STEP_1&lt;/span&gt;&lt;/sup&gt;&lt;br&gt;&lt;sup&gt;&lt;span data-end=&quot;734&quot; data-start=&quot;701&quot;&gt;&lt;span style=&quot;white-space: pre;&quot;&gt;&#x9;&lt;/span&gt;FILTERING_AND_QC_FROM_MINKNOW&lt;/span&gt; &lt;/sup&gt;&lt;br&gt;&lt;/font&gt;&lt;/font&gt;&lt;/b&gt;&lt;div&gt;&lt;b&gt;&lt;font&gt;&lt;font&gt;&lt;sup&gt;&lt;span data-end=&quot;833&quot; data-start=&quot;811&quot;&gt;&lt;span style=&quot;white-space: pre;&quot;&gt;&#x9;&lt;/span&gt;MODKIT_AND_MULTIQC&lt;/span&gt;&lt;/sup&gt;&lt;/font&gt;&lt;/font&gt;&lt;/b&gt;&lt;/div&gt;&lt;div&gt;&lt;b&gt;&lt;font&gt;&lt;font&gt;&lt;sup&gt;&lt;span data-end=&quot;833&quot; data-start=&quot;811&quot;&gt;&lt;br&gt;&lt;/span&gt;&lt;/sup&gt;&lt;/font&gt;&lt;/font&gt;&lt;/b&gt;&lt;/div&gt;&lt;div&gt;&lt;b&gt;&lt;font&gt;&lt;font&gt;&lt;sup&gt;&lt;span data-end=&quot;833&quot; data-start=&quot;811&quot;&gt;&lt;span style=&quot;white-space: pre;&quot;&gt;&#x9;&lt;/span&gt;&lt;span style=&quot;white-space: pre;&quot;&gt;&#x9;&lt;/span&gt;CHAMADA &lt;br&gt;&lt;/span&gt;&lt;/sup&gt;&lt;/font&gt;&lt;/font&gt;&lt;/b&gt;&lt;/div&gt;&lt;div&gt;&lt;b&gt;&lt;font&gt;&lt;font&gt;&lt;sup&gt;&lt;span data-end=&quot;833&quot; data-start=&quot;811&quot;&gt;&lt;br&gt;&lt;/span&gt;&lt;/sup&gt;&lt;/font&gt;&lt;/font&gt;&lt;/b&gt;&lt;/div&gt;&lt;div&gt;&lt;b&gt;&lt;font&gt;&lt;font&gt;&lt;sup&gt;&lt;span data-end=&quot;833&quot; data-start=&quot;811&quot;&gt;&lt;span style=&quot;white-space: pre;&quot;&gt;&#x9;&lt;/span&gt;&lt;span style=&quot;white-space: pre;&quot;&gt;&#x9;&lt;/span&gt;&lt;span style=&quot;white-space: pre;&quot;&gt;&#x9;&lt;/span&gt;GIT&lt;br&gt;&lt;/span&gt;&lt;/sup&gt;&lt;/font&gt;&lt;/font&gt;&lt;/b&gt;&lt;/div&gt;&lt;div&gt;&lt;font style=&quot;font-size: 13px;&quot;&gt;&lt;sup&gt;&lt;strong data-end=&quot;833&quot; data-start=&quot;811&quot;&gt;&lt;br&gt;&lt;/strong&gt;&lt;/sup&gt;&lt;/font&gt;&lt;/div&gt;&lt;div&gt;&lt;font style=&quot;font-size: 13px;&quot;&gt;&lt;sup&gt;&lt;strong data-end=&quot;833&quot; data-start=&quot;811&quot;&gt;&lt;br&gt;&lt;/strong&gt;&lt;/sup&gt;&lt;/font&gt;&lt;/div&gt;&lt;div&gt;&lt;font style=&quot;font-size: 13px;&quot;&gt;&lt;sup&gt;&lt;strong data-end=&quot;833&quot; data-start=&quot;811&quot;&gt;&lt;br&gt;&lt;/strong&gt;&lt;/sup&gt;&lt;/font&gt;&lt;/div&gt;" style="rounded=0;whiteSpace=wrap;html=1;align=left;fillColor=#F8CECC;fontFamily=Helvetica;fontSize=14;fontStyle=0" parent="1" vertex="1">
          <mxGeometry x="537.5" y="-840" width="260" height="280" as="geometry" />
        </mxCell>
        <mxCell id="yUYCpwI-ni2RMW_3PlUK-3" value="&lt;div&gt;&lt;font style=&quot;font-size: 17px;&quot;&gt;&lt;strong data-end=&quot;480&quot; data-start=&quot;465&quot;&gt;&lt;font&gt;BASECALL.NF&lt;/font&gt;&lt;/strong&gt;&lt;/font&gt;&lt;/div&gt;&lt;div&gt;&lt;font style=&quot;font-size: 15px;&quot;&gt;&lt;strong data-end=&quot;480&quot; data-start=&quot;465&quot;&gt;&lt;font&gt;&lt;br&gt;&lt;/font&gt;&lt;/strong&gt;&lt;/font&gt;&lt;/div&gt;&lt;div&gt;&lt;font style=&quot;font-size: 15px;&quot;&gt;&lt;strong data-end=&quot;480&quot; data-start=&quot;465&quot;&gt;&lt;font&gt;DEFINIÇÃO DOS PROCESSOS:&lt;br&gt;&lt;/font&gt;&lt;/strong&gt;&lt;/font&gt;&lt;/div&gt;&lt;div&gt;&lt;font style=&quot;font-size: 15px;&quot;&gt;&lt;strong data-end=&quot;480&quot; data-start=&quot;465&quot;&gt;&lt;font&gt;&lt;br&gt;&lt;/font&gt;&lt;/strong&gt;&lt;/font&gt;&lt;/div&gt;&lt;div&gt;&lt;font&gt;&lt;strong data-end=&quot;480&quot; data-start=&quot;465&quot;&gt;&lt;font&gt;&lt;font&gt;&lt;span style=&quot;white-space: pre;&quot;&gt;&lt;/span&gt;FAST5_TO_POD5&lt;/font&gt;&lt;/font&gt;&lt;/strong&gt;&lt;/font&gt;&lt;/div&gt;&lt;div&gt;&lt;font&gt;&lt;strong data-end=&quot;480&quot; data-start=&quot;465&quot;&gt;&lt;font&gt;BASECALL&lt;font&gt;_CPU&lt;/font&gt;&lt;/font&gt;&lt;/strong&gt;&lt;/font&gt;&lt;/div&gt;&lt;div&gt;&lt;font&gt;&lt;strong data-end=&quot;480&quot; data-start=&quot;465&quot;&gt;&lt;font&gt;BASECALL&lt;font&gt;_CPU_DEMUX&lt;/font&gt;&lt;/font&gt;&lt;/strong&gt;&lt;/font&gt;&lt;/div&gt;&lt;div&gt;&lt;font&gt;&lt;strong data-end=&quot;480&quot; data-start=&quot;465&quot;&gt;&lt;font&gt;&lt;font&gt;BASECALL_GPU&lt;/font&gt;&lt;/font&gt;&lt;/strong&gt;&lt;/font&gt;&lt;/div&gt;&lt;div&gt;&lt;font&gt;&lt;strong data-end=&quot;480&quot; data-start=&quot;465&quot;&gt;&lt;font&gt;&lt;font&gt;BASECALL_GPU&lt;/font&gt;&lt;/font&gt;&lt;/strong&gt;&lt;/font&gt;&lt;font&gt;&lt;strong data-end=&quot;480&quot; data-start=&quot;465&quot;&gt;&lt;font&gt;&lt;font&gt;_DEMUX&lt;/font&gt;&lt;/font&gt;&lt;/strong&gt;&lt;/font&gt;&lt;/div&gt;&lt;div&gt;&lt;font&gt;&lt;strong data-end=&quot;480&quot; data-start=&quot;465&quot;&gt;&lt;font&gt;&lt;font&gt;&lt;br&gt;&lt;/font&gt;&lt;/font&gt;&lt;/strong&gt;&lt;/font&gt;&lt;/div&gt;&lt;div&gt;&lt;font&gt;&lt;strong data-end=&quot;480&quot; data-start=&quot;465&quot;&gt;&lt;font&gt;&lt;span style=&quot;white-space: pre;&quot;&gt;&#x9;&lt;/span&gt;&lt;font&gt;CHAMADA:&lt;/font&gt;&lt;font&gt;&lt;br&gt;&lt;/font&gt;&lt;/font&gt;&lt;/strong&gt;&lt;/font&gt;&lt;/div&gt;&lt;div&gt;&lt;font&gt;&lt;strong data-end=&quot;480&quot; data-start=&quot;465&quot;&gt;&lt;font&gt;&lt;font&gt;&lt;br&gt;&lt;/font&gt;&lt;/font&gt;&lt;/strong&gt;&lt;/font&gt;&lt;/div&gt;&lt;div&gt;&lt;font&gt;&lt;strong data-end=&quot;480&quot; data-start=&quot;465&quot;&gt;&lt;font&gt;&lt;font&gt;&amp;nbsp;&amp;nbsp;&amp;nbsp;&amp;nbsp;&amp;nbsp;&amp;nbsp;&amp;nbsp;&amp;nbsp;&amp;nbsp;&amp;nbsp;&amp;nbsp;&amp;nbsp; &lt;font&gt;POD5,DORADO,SAMTOOLS&lt;/font&gt;&lt;/font&gt;&lt;/font&gt;&lt;/strong&gt;&lt;/font&gt;&lt;/div&gt;&lt;div&gt;&lt;font&gt;&lt;strong data-end=&quot;480&quot; data-start=&quot;465&quot;&gt;&lt;font&gt;&lt;font&gt;&lt;font&gt;&lt;br&gt;&lt;/font&gt;&lt;/font&gt;&lt;/font&gt;&lt;/strong&gt;&lt;/font&gt;&lt;/div&gt;&lt;div&gt;&lt;font&gt;&lt;sup&gt;&lt;strong data-end=&quot;480&quot; data-start=&quot;465&quot;&gt;&lt;span style=&quot;white-space: pre;&quot;&gt;&#x9;&lt;/span&gt;&lt;span style=&quot;white-space: pre;&quot;&gt;&#x9;&lt;/span&gt;&lt;/strong&gt;&lt;/sup&gt;&lt;/font&gt;&lt;/div&gt;" style="rounded=0;whiteSpace=wrap;html=1;align=left;shadow=0;fillColor=#66B2FF;fontFamily=Helvetica;fontSize=14;fontStyle=0" parent="1" vertex="1">
          <mxGeometry x="12.5" y="40" width="260" height="280" as="geometry" />
        </mxCell>
        <mxCell id="yUYCpwI-ni2RMW_3PlUK-4" value="&lt;div&gt;&lt;font style=&quot;font-size: 17px;&quot;&gt;&lt;strong data-end=&quot;480&quot; data-start=&quot;465&quot;&gt;&lt;font&gt;CALCULATE_COVERAGE.NF&lt;/font&gt;&lt;/strong&gt;&lt;/font&gt;&lt;/div&gt;&lt;div&gt;&lt;font&gt;&lt;strong data-end=&quot;480&quot; data-start=&quot;465&quot;&gt;&lt;font&gt;&lt;br&gt;&lt;/font&gt;&lt;/strong&gt;&lt;/font&gt;&lt;/div&gt;&lt;div&gt;&lt;font style=&quot;font-size: 15px;&quot;&gt;&lt;strong data-end=&quot;480&quot; data-start=&quot;465&quot;&gt;&lt;font&gt;DEFINIÇÃO DOS PROCESSOS:&lt;/font&gt;&lt;/strong&gt;&lt;/font&gt;&lt;/div&gt;&lt;div&gt;&lt;font&gt;&lt;strong data-end=&quot;480&quot; data-start=&quot;465&quot;&gt;&lt;font&gt;&lt;br&gt;&lt;/font&gt;&lt;/strong&gt;&lt;/font&gt;&lt;/div&gt;&lt;div&gt;&lt;font&gt;&lt;strong data-end=&quot;480&quot; data-start=&quot;465&quot;&gt;&lt;font&gt;CALCULATE_COVERAGE&lt;/font&gt;&lt;/strong&gt;&lt;/font&gt;&lt;/div&gt;&lt;div&gt;&lt;font&gt;&lt;strong data-end=&quot;480&quot; data-start=&quot;465&quot;&gt;&lt;font&gt;MERGE_COVERAGE&lt;br&gt;&lt;/font&gt;&lt;/strong&gt;&lt;/font&gt;&lt;/div&gt;&lt;div&gt;&lt;font&gt;&lt;strong data-end=&quot;480&quot; data-start=&quot;465&quot;&gt;&lt;font&gt;&lt;span style=&quot;white-space: pre;&quot;&gt;&lt;br&gt;&lt;/span&gt;&lt;/font&gt;&lt;/strong&gt;&lt;/font&gt;&lt;/div&gt;&lt;div&gt;&lt;font&gt;&lt;strong data-end=&quot;480&quot; data-start=&quot;465&quot;&gt;&lt;font&gt;&lt;span style=&quot;white-space: pre;&quot;&gt;&#x9;&lt;/span&gt;&lt;font&gt;&lt;br&gt;&lt;/font&gt;&lt;/font&gt;&lt;/strong&gt;&lt;/font&gt;&lt;/div&gt;&lt;div&gt;&lt;font&gt;&lt;strong data-end=&quot;480&quot; data-start=&quot;465&quot;&gt;&lt;font&gt;&lt;font&gt;CHAMADA:&lt;br&gt;&lt;br&gt;&amp;nbsp;&amp;nbsp;&amp;nbsp;&amp;nbsp;&amp;nbsp;&amp;nbsp;&amp;nbsp;&amp;nbsp;&amp;nbsp;&amp;nbsp;&amp;nbsp;&amp;nbsp;&amp;nbsp;&amp;nbsp;&amp;nbsp;&amp;nbsp; SAMTOOLS,&amp;nbsp; AWK&lt;br&gt;&lt;/font&gt;&lt;/font&gt;&lt;/strong&gt;&lt;/font&gt;&lt;/div&gt;&lt;div&gt;&lt;font&gt;&lt;strong data-end=&quot;480&quot; data-start=&quot;465&quot;&gt;&lt;font&gt;&lt;font&gt;&lt;br&gt;&lt;/font&gt;&lt;/font&gt;&lt;/strong&gt;&lt;/font&gt;&lt;/div&gt;&lt;div&gt;&lt;font&gt;&lt;strong data-end=&quot;480&quot; data-start=&quot;465&quot;&gt;&lt;font&gt;&lt;font&gt;&amp;nbsp;&amp;nbsp;&amp;nbsp;&amp;nbsp;&amp;nbsp;&amp;nbsp;&amp;nbsp;&amp;nbsp;&amp;nbsp;&amp;nbsp;&amp;nbsp;&amp;nbsp;&amp;nbsp;&amp;nbsp;&amp;nbsp;&amp;nbsp;&amp;nbsp; &lt;font&gt;&lt;br&gt;&lt;/font&gt;&lt;/font&gt;&lt;/font&gt;&lt;/strong&gt;&lt;/font&gt;&lt;/div&gt;&lt;div&gt;&lt;font&gt;&lt;strong data-end=&quot;480&quot; data-start=&quot;465&quot;&gt;&lt;font&gt;&lt;font&gt;&lt;br&gt;&lt;/font&gt;&lt;/font&gt;&lt;/strong&gt;&lt;/font&gt;&lt;/div&gt;&lt;div&gt;&lt;font&gt;&lt;sup&gt;&lt;strong data-end=&quot;480&quot; data-start=&quot;465&quot;&gt;&lt;span style=&quot;white-space: pre;&quot;&gt;&#x9;&lt;/span&gt;&lt;span style=&quot;white-space: pre;&quot;&gt;&#x9;&lt;/span&gt;&lt;/strong&gt;&lt;/sup&gt;&lt;/font&gt;&lt;/div&gt;" style="rounded=0;whiteSpace=wrap;html=1;align=left;shadow=0;fillColor=#66B2FF;fontFamily=Helvetica;fontSize=14;fontStyle=0" parent="1" vertex="1">
          <mxGeometry x="1930" y="520" width="260" height="280" as="geometry" />
        </mxCell>
        <mxCell id="yUYCpwI-ni2RMW_3PlUK-5" value="&lt;div&gt;&lt;font style=&quot;font-size: 17px;&quot;&gt;&lt;strong data-end=&quot;480&quot; data-start=&quot;465&quot;&gt;&lt;font&gt;&lt;br&gt;&lt;/font&gt;&lt;/strong&gt;&lt;/font&gt;&lt;/div&gt;&lt;div&gt;&lt;font style=&quot;font-size: 17px;&quot;&gt;&lt;strong data-end=&quot;480&quot; data-start=&quot;465&quot;&gt;&lt;font&gt;&lt;br&gt;&lt;/font&gt;&lt;/strong&gt;&lt;/font&gt;&lt;/div&gt;&lt;div&gt;&lt;font style=&quot;font-size: 17px;&quot;&gt;&lt;strong data-end=&quot;480&quot; data-start=&quot;465&quot;&gt;&lt;font&gt;CONVERT_INPUT_FROM&lt;/font&gt;&lt;/strong&gt;&lt;/font&gt;&lt;/div&gt;&lt;div&gt;&lt;font style=&quot;font-size: 17px;&quot;&gt;&lt;strong data-end=&quot;480&quot; data-start=&quot;465&quot;&gt;&lt;font&gt;_MINKNOW_BARCODED.NF&lt;/font&gt;&lt;/strong&gt;&lt;/font&gt;&lt;/div&gt;&lt;div&gt;&lt;font style=&quot;font-size: 15px;&quot;&gt;&lt;strong data-end=&quot;480&quot; data-start=&quot;465&quot;&gt;&lt;font&gt;&lt;br&gt;&lt;/font&gt;&lt;/strong&gt;&lt;/font&gt;&lt;/div&gt;&lt;div&gt;&lt;font style=&quot;font-size: 15px;&quot;&gt;&lt;strong data-end=&quot;480&quot; data-start=&quot;465&quot;&gt;&lt;font&gt;DEFINIÇÃO DOS PROCESSOS:&lt;/font&gt;&lt;/strong&gt;&lt;/font&gt;&lt;/div&gt;&lt;div&gt;&lt;font&gt;&lt;strong data-end=&quot;480&quot; data-start=&quot;465&quot;&gt;&lt;font&gt;&lt;br&gt;&lt;/font&gt;&lt;/strong&gt;&lt;/font&gt;&lt;/div&gt;&lt;div&gt;&lt;b&gt;&lt;span&gt;&lt;span style=&quot;color: rgb(0, 0, 0); font-style: normal; font-kerning: normal;&quot; class=&quot;OYPEnA font-feature-liga-off font-feature-clig-off font-feature-calt-off text-decoration-none text-strikethrough-none&quot;&gt;CONVERT_INPUT_FROM_MINKNOW&lt;/span&gt;&lt;/span&gt;&lt;/b&gt;&lt;/div&gt;&lt;div&gt;&lt;b&gt;&lt;span&gt;&lt;span style=&quot;color: rgb(0, 0, 0); font-style: normal; font-kerning: normal;&quot; class=&quot;OYPEnA font-feature-liga-off font-feature-clig-off font-feature-calt-off text-decoration-none text-strikethrough-none&quot;&gt;_BARCODED&lt;/span&gt;&lt;/span&gt;&lt;/b&gt;&lt;/div&gt;&lt;div&gt;&lt;b&gt;&lt;span&gt;&lt;span style=&quot;color: rgb(0, 0, 0); font-style: normal; font-kerning: normal;&quot; class=&quot;OYPEnA font-feature-liga-off font-feature-clig-off font-feature-calt-off text-decoration-none text-strikethrough-none&quot;&gt;&lt;br&gt;&lt;/span&gt;&lt;/span&gt;&lt;/b&gt;&lt;/div&gt;&lt;div&gt;&lt;b&gt;&lt;span style=&quot;color: rgb(0, 0, 0); font-style: normal; font-kerning: normal;&quot; class=&quot;OYPEnA font-feature-liga-off font-feature-clig-off font-feature-calt-off text-decoration-none text-strikethrough-none&quot;&gt;&lt;span&gt;CONVERT_INPUT_FROM_MINKNOW&lt;/span&gt;&lt;/span&gt;&lt;/b&gt;&lt;/div&gt;&lt;div&gt;&lt;b&gt;&lt;span style=&quot;color: rgb(0, 0, 0); font-style: normal; font-kerning: normal;&quot; class=&quot;OYPEnA font-feature-liga-off font-feature-clig-off font-feature-calt-off text-decoration-none text-strikethrough-none&quot;&gt;&lt;span&gt;_NOT_BARCODED&lt;br&gt;&lt;/span&gt;&lt;/span&gt;&lt;/b&gt;&lt;/div&gt;&lt;div&gt;&lt;span style=&quot;color: rgb(0, 0, 0); font-style: normal; font-kerning: normal;&quot; class=&quot;OYPEnA font-feature-liga-off font-feature-clig-off font-feature-calt-off text-decoration-none text-strikethrough-none&quot;&gt;&lt;span&gt;&lt;br&gt;&lt;/span&gt;&lt;/span&gt;&lt;/div&gt;&lt;div&gt;&lt;font&gt;&lt;strong data-end=&quot;480&quot; data-start=&quot;465&quot;&gt;&lt;font&gt;&lt;font&gt;&lt;span style=&quot;white-space: pre;&quot;&gt;&lt;/span&gt;CHAMADA:&lt;br&gt;&lt;br&gt;&amp;nbsp;&amp;nbsp;&amp;nbsp;&amp;nbsp;&amp;nbsp;&amp;nbsp;&amp;nbsp;&amp;nbsp;&amp;nbsp;&amp;nbsp;&amp;nbsp;&amp;nbsp; &lt;span style=&quot;white-space: pre;&quot;&gt;&#x9;&lt;/span&gt;&lt;/font&gt;&lt;/font&gt;&lt;/strong&gt;&lt;/font&gt;&lt;b&gt;SAMTOOLS, DORADO&lt;/b&gt;&lt;font&gt;&lt;strong data-end=&quot;480&quot; data-start=&quot;465&quot;&gt;&lt;font&gt;&lt;font&gt;&amp;nbsp;&amp;nbsp;&amp;nbsp;&amp;nbsp;&amp;nbsp;&amp;nbsp;&amp;nbsp;&amp;nbsp; &lt;br&gt;&lt;/font&gt;&lt;/font&gt;&lt;/strong&gt;&lt;/font&gt;&lt;/div&gt;&lt;div&gt;&lt;font&gt;&lt;strong data-end=&quot;480&quot; data-start=&quot;465&quot;&gt;&lt;font&gt;&lt;font&gt;&lt;br&gt;&lt;/font&gt;&lt;/font&gt;&lt;/strong&gt;&lt;/font&gt;&lt;/div&gt;&lt;div&gt;&lt;font&gt;&lt;strong data-end=&quot;480&quot; data-start=&quot;465&quot;&gt;&lt;font&gt;&lt;font&gt;&lt;font&gt;&lt;br&gt;&lt;/font&gt;&lt;/font&gt;&lt;/font&gt;&lt;/strong&gt;&lt;/font&gt;&lt;/div&gt;&lt;div&gt;&lt;font&gt;&lt;strong data-end=&quot;480&quot; data-start=&quot;465&quot;&gt;&lt;font&gt;&lt;font&gt;&lt;br&gt;&lt;/font&gt;&lt;/font&gt;&lt;/strong&gt;&lt;/font&gt;&lt;/div&gt;&lt;div&gt;&lt;font&gt;&lt;sup&gt;&lt;strong data-end=&quot;480&quot; data-start=&quot;465&quot;&gt;&lt;span style=&quot;white-space: pre;&quot;&gt;&#x9;&lt;/span&gt;&lt;span style=&quot;white-space: pre;&quot;&gt;&#x9;&lt;/span&gt;&lt;/strong&gt;&lt;/sup&gt;&lt;/font&gt;&lt;/div&gt;" style="rounded=0;whiteSpace=wrap;html=1;align=left;shadow=0;fillColor=#66B2FF;fontFamily=Helvetica;fontSize=14;fontStyle=0" parent="1" vertex="1">
          <mxGeometry x="1370" y="210" width="260" height="280" as="geometry" />
        </mxCell>
        <mxCell id="yUYCpwI-ni2RMW_3PlUK-6" value="&lt;div&gt;&lt;font style=&quot;font-size: 17px;&quot;&gt;&lt;strong data-end=&quot;480&quot; data-start=&quot;465&quot;&gt;&lt;font&gt;FILTER_BAM.NF&lt;/font&gt;&lt;/strong&gt;&lt;/font&gt;&lt;/div&gt;&lt;div&gt;&lt;font style=&quot;font-size: 15px;&quot;&gt;&lt;strong data-end=&quot;480&quot; data-start=&quot;465&quot;&gt;&lt;font&gt;&lt;br&gt;&lt;/font&gt;&lt;/strong&gt;&lt;/font&gt;&lt;/div&gt;&lt;div&gt;&lt;font style=&quot;font-size: 15px;&quot;&gt;&lt;strong data-end=&quot;480&quot; data-start=&quot;465&quot;&gt;&lt;font&gt;DEFINIÇÃO DOS PROCESSOS:&lt;/font&gt;&lt;/strong&gt;&lt;/font&gt;&lt;/div&gt;&lt;div&gt;&lt;font style=&quot;font-size: 15px;&quot;&gt;&lt;strong data-end=&quot;480&quot; data-start=&quot;465&quot;&gt;&lt;font&gt;&lt;br&gt;&lt;/font&gt;&lt;/strong&gt;&lt;/font&gt;&lt;/div&gt;&lt;div&gt;&lt;font&gt;&lt;strong data-end=&quot;480&quot; data-start=&quot;465&quot;&gt;FILTER_BAM&lt;br&gt;&lt;/strong&gt;&lt;/font&gt;&lt;/div&gt;&lt;div&gt;&lt;font&gt;&lt;strong data-end=&quot;480&quot; data-start=&quot;465&quot;&gt;&lt;font&gt;&lt;span style=&quot;white-space: pre;&quot;&gt;&lt;br&gt;&lt;/span&gt;&lt;/font&gt;&lt;/strong&gt;&lt;/font&gt;&lt;/div&gt;&lt;div&gt;&lt;font&gt;&lt;strong data-end=&quot;480&quot; data-start=&quot;465&quot;&gt;&lt;font&gt;&lt;span style=&quot;white-space: pre;&quot;&gt;&lt;span style=&quot;white-space: pre;&quot;&gt;&#x9;&lt;/span&gt;&#x9;&lt;/span&gt;&lt;font&gt;&lt;br&gt;&lt;/font&gt;&lt;/font&gt;&lt;/strong&gt;&lt;/font&gt;&lt;/div&gt;&lt;div&gt;&lt;font&gt;&lt;strong data-end=&quot;480&quot; data-start=&quot;465&quot;&gt;&lt;font&gt;&lt;font&gt;&lt;br&gt;&lt;/font&gt;&lt;/font&gt;&lt;/strong&gt;&lt;/font&gt;&lt;/div&gt;&lt;div&gt;&lt;font&gt;&lt;strong data-end=&quot;480&quot; data-start=&quot;465&quot;&gt;&lt;font&gt;&lt;font&gt;&amp;nbsp;&amp;nbsp;&amp;nbsp;&amp;nbsp;&amp;nbsp;&amp;nbsp;&amp;nbsp;&amp;nbsp;&amp;nbsp;&amp;nbsp;&amp;nbsp;&amp;nbsp;&amp;nbsp; &lt;/font&gt;&lt;/font&gt;&lt;/strong&gt;&lt;/font&gt;&lt;font&gt;&lt;strong data-end=&quot;480&quot; data-start=&quot;465&quot;&gt;&lt;font&gt;&lt;font&gt;CHAMADA:&lt;/font&gt;&lt;font&gt;&lt;br&gt;&lt;/font&gt;&lt;/font&gt;&lt;/strong&gt;&lt;/font&gt;&lt;div&gt;&lt;font&gt;&lt;strong data-end=&quot;480&quot; data-start=&quot;465&quot;&gt;&lt;font&gt;&lt;font&gt;&lt;br&gt;&lt;/font&gt;&lt;/font&gt;&lt;/strong&gt;&lt;/font&gt;&lt;/div&gt;&lt;div&gt;&lt;font&gt;&lt;strong data-end=&quot;480&quot; data-start=&quot;465&quot;&gt;&lt;font&gt;&lt;font&gt;&amp;nbsp;&amp;nbsp;&amp;nbsp;&amp;nbsp;&amp;nbsp;&amp;nbsp;&amp;nbsp;&amp;nbsp;&amp;nbsp;&amp;nbsp;&amp;nbsp;&amp;nbsp; &lt;font&gt;SAMTOOL,&amp;nbsp;AWK, &lt;/font&gt;&lt;/font&gt;&lt;/font&gt;&lt;/strong&gt;&lt;/font&gt;&lt;b&gt;CP&lt;/b&gt; &lt;code&gt;/&lt;b&gt;RM&lt;/b&gt;&lt;/code&gt; /&amp;nbsp;&lt;/div&gt;&lt;font&gt;&lt;strong data-end=&quot;480&quot; data-start=&quot;465&quot;&gt;&lt;font&gt;&lt;font&gt;&amp;nbsp;&amp;nbsp; &lt;font&gt;&lt;/font&gt;&lt;/font&gt;&lt;/font&gt;&lt;/strong&gt;&lt;/font&gt;&lt;/div&gt;&lt;div&gt;&lt;font&gt;&lt;strong data-end=&quot;480&quot; data-start=&quot;465&quot;&gt;&lt;font&gt;&lt;font&gt;&lt;br&gt;&lt;/font&gt;&lt;/font&gt;&lt;/strong&gt;&lt;/font&gt;&lt;/div&gt;&lt;div&gt;&lt;font&gt;&lt;sup&gt;&lt;strong data-end=&quot;480&quot; data-start=&quot;465&quot;&gt;&lt;span style=&quot;white-space: pre;&quot;&gt;&lt;br&gt;&lt;/span&gt;&lt;/strong&gt;&lt;/sup&gt;&lt;/font&gt;&lt;/div&gt;&lt;div&gt;&lt;font&gt;&lt;sup&gt;&lt;strong data-end=&quot;480&quot; data-start=&quot;465&quot;&gt;&lt;span style=&quot;white-space: pre;&quot;&gt;&#x9;&lt;/span&gt;&lt;span style=&quot;white-space: pre;&quot;&gt;&#x9;&lt;/span&gt;&lt;/strong&gt;&lt;/sup&gt;&lt;/font&gt;&lt;/div&gt;" style="rounded=0;whiteSpace=wrap;html=1;align=left;shadow=0;fillColor=#66B2FF;fontFamily=Helvetica;fontSize=14;fontStyle=0" parent="1" vertex="1">
          <mxGeometry x="210" y="420" width="260" height="280" as="geometry" />
        </mxCell>
        <mxCell id="yUYCpwI-ni2RMW_3PlUK-8" value="&lt;div&gt;&lt;font style=&quot;font-size: 17px;&quot;&gt;&lt;strong data-end=&quot;480&quot; data-start=&quot;465&quot;&gt;&lt;font&gt;MODKIT.NF&lt;/font&gt;&lt;/strong&gt;&lt;/font&gt;&lt;/div&gt;&lt;div&gt;&lt;font style=&quot;font-size: 15px;&quot;&gt;&lt;strong data-end=&quot;480&quot; data-start=&quot;465&quot;&gt;&lt;font&gt;&lt;br&gt;&lt;/font&gt;&lt;/strong&gt;&lt;/font&gt;&lt;/div&gt;&lt;div&gt;&lt;font style=&quot;font-size: 15px;&quot;&gt;&lt;strong data-end=&quot;480&quot; data-start=&quot;465&quot;&gt;&lt;font&gt;DEFINIÇÃO DOS PROCESSOS:&lt;/font&gt;&lt;/strong&gt;&lt;/font&gt;&lt;/div&gt;&lt;div&gt;&lt;font&gt;&lt;strong data-end=&quot;480&quot; data-start=&quot;465&quot;&gt;&lt;font&gt;&lt;br&gt;&lt;/font&gt;&lt;/strong&gt;&lt;/font&gt;&lt;/div&gt;&lt;div&gt;&lt;font&gt;&lt;strong data-end=&quot;480&quot; data-start=&quot;465&quot;&gt;MODKIT&lt;br&gt;&lt;/strong&gt;&lt;/font&gt;&lt;/div&gt;&lt;div&gt;&lt;font&gt;&lt;strong data-end=&quot;480&quot; data-start=&quot;465&quot;&gt;&lt;font&gt;&lt;span style=&quot;white-space: pre;&quot;&gt;&lt;br&gt;&lt;/span&gt;&lt;/font&gt;&lt;/strong&gt;&lt;/font&gt;&lt;/div&gt;&lt;div&gt;&lt;font&gt;&lt;strong data-end=&quot;480&quot; data-start=&quot;465&quot;&gt;&lt;font&gt;&lt;font&gt;&lt;span style=&quot;white-space: pre;&quot;&gt;&#x9;&lt;/span&gt;&lt;span style=&quot;white-space: pre;&quot;&gt;&#x9;&lt;/span&gt;&lt;/font&gt;&lt;/font&gt;&lt;/strong&gt;&lt;/font&gt;&lt;div&gt;&lt;font&gt;&lt;strong data-end=&quot;480&quot; data-start=&quot;465&quot;&gt;&lt;font&gt;&lt;font&gt;CHAMADA:&lt;br&gt;&lt;br&gt;&amp;nbsp;&amp;nbsp;&amp;nbsp;&amp;nbsp;&amp;nbsp;&amp;nbsp;&amp;nbsp;&amp;nbsp;&amp;nbsp;&amp;nbsp;&amp;nbsp;&amp;nbsp;&amp;nbsp;&amp;nbsp;&amp;nbsp;&amp;nbsp; &lt;/font&gt;&lt;/font&gt;&lt;/strong&gt;&lt;/font&gt;&lt;b&gt;M&lt;strong&gt;ODKIT&lt;/strong&gt;&lt;/b&gt;&lt;/div&gt;&lt;/div&gt;&lt;div&gt;&lt;font&gt;&lt;strong data-end=&quot;480&quot; data-start=&quot;465&quot;&gt;&lt;font&gt;&lt;font&gt;&lt;span style=&quot;white-space: pre;&quot;&gt;&#x9;&lt;/span&gt;&lt;br&gt;&lt;/font&gt;&lt;/font&gt;&lt;/strong&gt;&lt;/font&gt;&lt;/div&gt;&lt;div&gt;&lt;font&gt;&lt;strong data-end=&quot;480&quot; data-start=&quot;465&quot;&gt;&lt;font&gt;&lt;font&gt;&amp;nbsp;&amp;nbsp;&amp;nbsp;&amp;nbsp;&amp;nbsp;&amp;nbsp;&amp;nbsp;&amp;nbsp;&amp;nbsp;&amp;nbsp;&amp;nbsp;&amp;nbsp;&amp;nbsp;&amp;nbsp;&amp;nbsp;&amp;nbsp;&amp;nbsp; &lt;font&gt;&lt;br&gt;&lt;/font&gt;&lt;/font&gt;&lt;/font&gt;&lt;/strong&gt;&lt;/font&gt;&lt;/div&gt;&lt;div&gt;&lt;font&gt;&lt;strong data-end=&quot;480&quot; data-start=&quot;465&quot;&gt;&lt;font&gt;&lt;font&gt;&lt;br&gt;&lt;/font&gt;&lt;/font&gt;&lt;/strong&gt;&lt;/font&gt;&lt;/div&gt;&lt;div&gt;&lt;font&gt;&lt;sup&gt;&lt;strong data-end=&quot;480&quot; data-start=&quot;465&quot;&gt;&lt;span style=&quot;white-space: pre;&quot;&gt;&#x9;&lt;/span&gt;&lt;span style=&quot;white-space: pre;&quot;&gt;&#x9;&lt;/span&gt;&lt;/strong&gt;&lt;/sup&gt;&lt;/font&gt;&lt;/div&gt;" style="rounded=0;whiteSpace=wrap;html=1;align=left;shadow=0;fillColor=#66B2FF;fontFamily=Helvetica;fontSize=14;fontStyle=0" parent="1" vertex="1">
          <mxGeometry x="2600" y="520" width="260" height="280" as="geometry" />
        </mxCell>
        <mxCell id="yUYCpwI-ni2RMW_3PlUK-9" value="&lt;div&gt;&lt;font style=&quot;font-size: 17px;&quot;&gt;&lt;strong data-end=&quot;480&quot; data-start=&quot;465&quot;&gt;&lt;font&gt;MULTIQC.NF&lt;/font&gt;&lt;/strong&gt;&lt;/font&gt;&lt;/div&gt;&lt;div&gt;&lt;font style=&quot;font-size: 15px;&quot;&gt;&lt;strong data-end=&quot;480&quot; data-start=&quot;465&quot;&gt;&lt;font&gt;&lt;br&gt;&lt;/font&gt;&lt;/strong&gt;&lt;/font&gt;&lt;/div&gt;&lt;div&gt;&lt;font style=&quot;font-size: 15px;&quot;&gt;&lt;strong data-end=&quot;480&quot; data-start=&quot;465&quot;&gt;&lt;font&gt;DEFINIÇÃO DOS PROCESSOS:&lt;/font&gt;&lt;/strong&gt;&lt;/font&gt;&lt;/div&gt;&lt;div&gt;&lt;font&gt;&lt;strong data-end=&quot;480&quot; data-start=&quot;465&quot;&gt;&lt;font&gt;&lt;br&gt;&lt;/font&gt;&lt;/strong&gt;&lt;/font&gt;&lt;/div&gt;&lt;div&gt;&lt;font&gt;&lt;strong data-end=&quot;480&quot; data-start=&quot;465&quot;&gt;MULTIQC&lt;br&gt;&lt;/strong&gt;&lt;/font&gt;&lt;/div&gt;&lt;div&gt;&lt;font&gt;&lt;strong data-end=&quot;480&quot; data-start=&quot;465&quot;&gt;&lt;br&gt;&lt;/strong&gt;&lt;/font&gt;&lt;/div&gt;&lt;div&gt;&lt;div&gt;&lt;font&gt;&lt;strong data-end=&quot;480&quot; data-start=&quot;465&quot;&gt;&lt;font&gt;&lt;font&gt;CHAMADA:&lt;br&gt;&lt;br&gt;&amp;nbsp;&amp;nbsp;&amp;nbsp;&amp;nbsp;&amp;nbsp;&amp;nbsp;&amp;nbsp;&amp;nbsp;&amp;nbsp;&amp;nbsp;&amp;nbsp;&amp;nbsp;&amp;nbsp;&amp;nbsp;&amp;nbsp;&amp;nbsp; &lt;/font&gt;&lt;/font&gt;&lt;/strong&gt;&lt;/font&gt;&lt;b&gt;MULTIQC&lt;/b&gt;&lt;/div&gt;&lt;div&gt;&lt;font&gt;&lt;strong data-end=&quot;480&quot; data-start=&quot;465&quot;&gt;&lt;font&gt;&lt;font&gt;&lt;br&gt;&lt;br&gt;&lt;/font&gt;&lt;/font&gt;&lt;/strong&gt;&lt;/font&gt;&lt;/div&gt;&lt;/div&gt;&lt;div&gt;&lt;font&gt;&lt;strong data-end=&quot;480&quot; data-start=&quot;465&quot;&gt;&lt;font&gt;&lt;font&gt;&lt;br&gt;&lt;/font&gt;&lt;/font&gt;&lt;/strong&gt;&lt;/font&gt;&lt;/div&gt;&lt;div&gt;&lt;font&gt;&lt;strong data-end=&quot;480&quot; data-start=&quot;465&quot;&gt;&lt;font&gt;&lt;font&gt;&lt;span style=&quot;white-space: pre;&quot;&gt;&#x9;&lt;/span&gt;&lt;span style=&quot;white-space: pre;&quot;&gt;&#x9;&lt;/span&gt;&lt;span style=&quot;white-space: pre;&quot;&gt;&#x9;&lt;/span&gt;&lt;span style=&quot;white-space: pre;&quot;&gt;&#x9;&lt;/span&gt;&lt;span style=&quot;white-space: pre;&quot;&gt;&#x9;&lt;/span&gt;&lt;br&gt;&lt;/font&gt;&lt;/font&gt;&lt;/strong&gt;&lt;/font&gt;&lt;/div&gt;&lt;div&gt;&lt;font&gt;&lt;strong data-end=&quot;480&quot; data-start=&quot;465&quot;&gt;&lt;font&gt;&lt;font&gt;&lt;br&gt;&lt;/font&gt;&lt;/font&gt;&lt;/strong&gt;&lt;/font&gt;&lt;/div&gt;&lt;div&gt;&lt;font&gt;&lt;sup&gt;&lt;strong data-end=&quot;480&quot; data-start=&quot;465&quot;&gt;&lt;span style=&quot;white-space: pre;&quot;&gt;&#x9;&lt;/span&gt;&lt;span style=&quot;white-space: pre;&quot;&gt;&#x9;&lt;/span&gt;&lt;/strong&gt;&lt;/sup&gt;&lt;/font&gt;&lt;/div&gt;" style="rounded=0;whiteSpace=wrap;html=1;align=left;shadow=0;fillColor=#66B2FF;fontFamily=Helvetica;fontSize=14;fontStyle=0" parent="1" vertex="1">
          <mxGeometry x="2270" y="520" width="260" height="280" as="geometry" />
        </mxCell>
        <mxCell id="yUYCpwI-ni2RMW_3PlUK-10" value="&lt;div&gt;&lt;font style=&quot;font-size: 17px;&quot;&gt;&lt;strong data-end=&quot;480&quot; data-start=&quot;465&quot;&gt;&lt;font&gt;NUM_READS_REPORT.NF&lt;/font&gt;&lt;/strong&gt;&lt;/font&gt;&lt;/div&gt;&lt;div&gt;&lt;font&gt;&lt;strong data-end=&quot;480&quot; data-start=&quot;465&quot;&gt;&lt;font&gt;&lt;br&gt;&lt;/font&gt;&lt;/strong&gt;&lt;/font&gt;&lt;/div&gt;&lt;div&gt;&lt;font style=&quot;font-size: 15px;&quot;&gt;&lt;strong data-end=&quot;480&quot; data-start=&quot;465&quot;&gt;&lt;font&gt;DEFINIÇÃO DOS PROCESSOS:&lt;/font&gt;&lt;/strong&gt;&lt;/font&gt;&lt;/div&gt;&lt;div&gt;&lt;font&gt;&lt;strong data-end=&quot;480&quot; data-start=&quot;465&quot;&gt;&lt;font&gt;&lt;br&gt;&lt;/font&gt;&lt;/strong&gt;&lt;/font&gt;&lt;/div&gt;&lt;div&gt;&lt;font&gt;&lt;strong data-end=&quot;480&quot; data-start=&quot;465&quot;&gt;MAKE_QC_REPORT&lt;/strong&gt;&lt;/font&gt;&lt;/div&gt;&lt;div&gt;&lt;font&gt;&lt;strong data-end=&quot;480&quot; data-start=&quot;465&quot;&gt;MERGE_QC_REPORT&lt;br&gt;&lt;/strong&gt;&lt;/font&gt;&lt;/div&gt;&lt;div&gt;&lt;font&gt;&lt;strong data-end=&quot;480&quot; data-start=&quot;465&quot;&gt;&lt;font&gt;&lt;span style=&quot;white-space: pre;&quot;&gt;&#x9;&lt;/span&gt;&lt;font&gt;&lt;br&gt;&lt;/font&gt;&lt;/font&gt;&lt;/strong&gt;&lt;/font&gt;&lt;/div&gt;&lt;div&gt;&lt;font&gt;&lt;strong data-end=&quot;480&quot; data-start=&quot;465&quot;&gt;&lt;font&gt;&lt;font&gt;&lt;span style=&quot;white-space: pre;&quot;&gt;&#x9;&lt;/span&gt;&lt;/font&gt;&lt;font&gt;&lt;br&gt;&lt;/font&gt;&lt;/font&gt;&lt;/strong&gt;&lt;/font&gt;&lt;/div&gt;&lt;div&gt;&lt;font&gt;&lt;strong data-end=&quot;480&quot; data-start=&quot;465&quot;&gt;&lt;font&gt;&lt;font&gt;&lt;span style=&quot;white-space: pre;&quot;&gt;&#x9;&lt;span style=&quot;white-space: pre;&quot;&gt;&#x9;&lt;/span&gt;&#x9;&lt;/span&gt;&lt;span style=&quot;white-space: pre;&quot;&gt;&#x9;&lt;/span&gt;&lt;span style=&quot;white-space: pre;&quot;&gt;&#x9;&lt;/span&gt;&lt;span style=&quot;white-space: pre;&quot;&gt;&#x9;&lt;/span&gt;&lt;span style=&quot;white-space: pre;&quot;&gt;&#x9;&lt;/span&gt;&lt;span style=&quot;white-space: pre;&quot;&gt;&#x9;&lt;/span&gt;&lt;br&gt;&lt;/font&gt;&lt;/font&gt;&lt;/strong&gt;&lt;/font&gt;&lt;/div&gt;&lt;div&gt;&lt;font&gt;&lt;strong data-end=&quot;480&quot; data-start=&quot;465&quot;&gt;&lt;font&gt;&lt;font&gt;&amp;nbsp;&amp;nbsp;&amp;nbsp;&amp;nbsp;&amp;nbsp;&amp;nbsp;&amp;nbsp;&amp;nbsp;&amp;nbsp;&amp;nbsp;&amp;nbsp;&amp;nbsp;&amp;nbsp;&amp;nbsp;&amp;nbsp;&amp;nbsp; &lt;font&gt;&lt;/font&gt;&lt;/font&gt;&lt;/font&gt;&lt;/strong&gt;&lt;/font&gt;&lt;font&gt;&lt;strong data-end=&quot;480&quot; data-start=&quot;465&quot;&gt;&lt;font&gt;&lt;font&gt;&lt;span style=&quot;white-space: pre;&quot;&gt;&lt;/span&gt;CHAMADA:&lt;br&gt;&lt;br&gt;&amp;nbsp;&amp;nbsp;&amp;nbsp;&amp;nbsp;&amp;nbsp;&amp;nbsp;&amp;nbsp;&amp;nbsp;&amp;nbsp;&amp;nbsp;&amp;nbsp;&amp;nbsp; &lt;span style=&quot;white-space: pre;&quot;&gt;&#x9;&lt;/span&gt;JQ&lt;/font&gt;&lt;/font&gt;&lt;/strong&gt;&lt;/font&gt;&lt;/div&gt;&lt;div&gt;&lt;font&gt;&lt;strong data-end=&quot;480&quot; data-start=&quot;465&quot;&gt;&lt;font&gt;&lt;font&gt;&lt;br&gt;&lt;/font&gt;&lt;/font&gt;&lt;/strong&gt;&lt;/font&gt;&lt;/div&gt;&lt;div&gt;&lt;font&gt;&lt;sup&gt;&lt;strong data-end=&quot;480&quot; data-start=&quot;465&quot;&gt;&lt;span style=&quot;white-space: pre;&quot;&gt;&#x9;&lt;/span&gt;&lt;span style=&quot;white-space: pre;&quot;&gt;&#x9;&lt;/span&gt;&lt;/strong&gt;&lt;/sup&gt;&lt;/font&gt;&lt;/div&gt;" style="rounded=0;whiteSpace=wrap;html=1;align=left;shadow=0;fillColor=#66B2FF;fontFamily=Helvetica;fontSize=14;fontStyle=0" parent="1" vertex="1">
          <mxGeometry x="550" y="1010" width="260" height="280" as="geometry" />
        </mxCell>
        <mxCell id="yUYCpwI-ni2RMW_3PlUK-11" value="&lt;div&gt;&lt;font style=&quot;font-size: 17px;&quot;&gt;&lt;strong data-end=&quot;480&quot; data-start=&quot;465&quot;&gt;&lt;font&gt;PYCOQC.NF&lt;/font&gt;&lt;/strong&gt;&lt;/font&gt;&lt;/div&gt;&lt;div&gt;&lt;font&gt;&lt;strong data-end=&quot;480&quot; data-start=&quot;465&quot;&gt;&lt;font&gt;&lt;br&gt;&lt;/font&gt;&lt;/strong&gt;&lt;/font&gt;&lt;/div&gt;&lt;div&gt;&lt;font style=&quot;font-size: 15px;&quot;&gt;&lt;strong data-end=&quot;480&quot; data-start=&quot;465&quot;&gt;&lt;font&gt;DEFINIÇÃO DOS PROCESSOS:&lt;/font&gt;&lt;/strong&gt;&lt;/font&gt;&lt;/div&gt;&lt;div&gt;&lt;font&gt;&lt;strong data-end=&quot;480&quot; data-start=&quot;465&quot;&gt;&lt;font&gt;&lt;br&gt;&lt;/font&gt;&lt;/strong&gt;&lt;/font&gt;&lt;/div&gt;&lt;div&gt;&lt;font&gt;&lt;strong data-end=&quot;480&quot; data-start=&quot;465&quot;&gt;PYCOQC_NO_FILTER&lt;br&gt;&lt;/strong&gt;&lt;/font&gt;&lt;/div&gt;&lt;div&gt;&lt;font&gt;&lt;strong data-end=&quot;480&quot; data-start=&quot;465&quot;&gt;PYCOQC_FILTER&lt;br&gt;&lt;/strong&gt;&lt;/font&gt;&lt;/div&gt;&lt;div&gt;&lt;font&gt;&lt;strong data-end=&quot;480&quot; data-start=&quot;465&quot;&gt;&lt;font&gt;&lt;span style=&quot;white-space: pre;&quot;&gt;&#x9;&lt;/span&gt;&lt;/font&gt;&lt;/strong&gt;&lt;/font&gt;&lt;/div&gt;&lt;div&gt;&lt;font&gt;&lt;strong data-end=&quot;480&quot; data-start=&quot;465&quot;&gt;&lt;font&gt;&lt;span style=&quot;white-space: pre;&quot;&gt;&#x9;&lt;/span&gt;&lt;font&gt;&lt;br&gt;&lt;/font&gt;&lt;/font&gt;&lt;/strong&gt;&lt;/font&gt;&lt;/div&gt;&lt;div&gt;&lt;font&gt;&lt;strong data-end=&quot;480&quot; data-start=&quot;465&quot;&gt;&lt;font&gt;&lt;font&gt;&lt;span style=&quot;white-space: pre;&quot;&gt;&#x9;&lt;/span&gt;&lt;span style=&quot;white-space: pre;&quot;&gt;&#x9;&lt;/span&gt;&lt;span style=&quot;white-space: pre;&quot;&gt;&#x9;&lt;/span&gt;&lt;span style=&quot;white-space: pre;&quot;&gt;&#x9;&lt;/span&gt;&lt;span style=&quot;white-space: pre;&quot;&gt;&#x9;&lt;/span&gt;&lt;span style=&quot;white-space: pre;&quot;&gt;&#x9;&lt;/span&gt;&lt;span style=&quot;white-space: pre;&quot;&gt;&#x9;&lt;/span&gt;&lt;span style=&quot;white-space: pre;&quot;&gt;&#x9;&lt;/span&gt;&lt;span style=&quot;white-space: pre;&quot;&gt;&#x9;&lt;/span&gt;&lt;span style=&quot;white-space: pre;&quot;&gt;&#x9;&lt;/span&gt;&lt;span style=&quot;white-space: pre;&quot;&gt;&#x9;&lt;/span&gt;&lt;br&gt;&lt;/font&gt;&lt;/font&gt;&lt;/strong&gt;&lt;/font&gt;&lt;/div&gt;&lt;div&gt;&lt;font&gt;&lt;strong data-end=&quot;480&quot; data-start=&quot;465&quot;&gt;&lt;font&gt;&lt;font&gt;&lt;span style=&quot;white-space: pre;&quot;&gt;&#x9;&lt;/span&gt;CHAMADA:&lt;br&gt;&lt;br&gt;&amp;nbsp;&amp;nbsp;&amp;nbsp;&amp;nbsp;&amp;nbsp;&amp;nbsp;&amp;nbsp;&amp;nbsp;&amp;nbsp;&amp;nbsp;&amp;nbsp;&amp;nbsp; &lt;span style=&quot;white-space: pre;&quot;&gt;&#x9;&lt;/span&gt;PYCOQC&lt;/font&gt;&lt;/font&gt;&lt;/strong&gt;&lt;/font&gt;&lt;/div&gt;&lt;div&gt;&lt;font&gt;&lt;strong data-end=&quot;480&quot; data-start=&quot;465&quot;&gt;&lt;font&gt;&lt;font&gt;&lt;br&gt;&lt;/font&gt;&lt;/font&gt;&lt;/strong&gt;&lt;/font&gt;&lt;/div&gt;&lt;div&gt;&lt;font&gt;&lt;sup&gt;&lt;strong data-end=&quot;480&quot; data-start=&quot;465&quot;&gt;&lt;span style=&quot;white-space: pre;&quot;&gt;&#x9;&lt;/span&gt;&lt;span style=&quot;white-space: pre;&quot;&gt;&#x9;&lt;/span&gt;&lt;/strong&gt;&lt;/sup&gt;&lt;/font&gt;&lt;/div&gt;" style="rounded=0;whiteSpace=wrap;html=1;align=left;fillColor=#66B2FF;fontFamily=Helvetica;fontSize=14;fontStyle=0" parent="1" vertex="1">
          <mxGeometry x="890" y="430" width="260" height="280" as="geometry" />
        </mxCell>
        <mxCell id="yUYCpwI-ni2RMW_3PlUK-12" value="&lt;div&gt;&lt;font style=&quot;font-size: 17px;&quot;&gt;&lt;strong data-end=&quot;480&quot; data-start=&quot;465&quot;&gt;&lt;font&gt;BASECALLING.NF&lt;/font&gt;&lt;/strong&gt;&lt;/font&gt;&lt;/div&gt;&lt;div&gt;&lt;font&gt;&lt;span data-start=&quot;1936&quot; data-end=&quot;1976&quot;&gt;&lt;b&gt;SUB-WORKFLOW&lt;/b&gt;&lt;/span&gt;&lt;/font&gt;&lt;/div&gt;&lt;br&gt;&lt;div&gt;&lt;font&gt;&lt;strong data-end=&quot;480&quot; data-start=&quot;465&quot;&gt;&lt;font&gt;&lt;span style=&quot;white-space: pre;&quot;&gt;&#x9;&lt;/span&gt;&lt;font&gt;IMPORTANDO&lt;/font&gt;&lt;font&gt; PROCESSOS&lt;br&gt;&lt;/font&gt;&lt;/font&gt;&lt;/strong&gt;&lt;/font&gt;&lt;/div&gt;&lt;div&gt;&lt;font&gt;&lt;strong data-end=&quot;480&quot; data-start=&quot;465&quot;&gt;&lt;font&gt;&lt;font&gt;&lt;span style=&quot;white-space: pre;&quot;&gt;&#x9;&lt;/span&gt;&lt;span style=&quot;white-space: pre;&quot;&gt;&#x9;&lt;/span&gt;&lt;br&gt;&lt;/font&gt;&lt;/font&gt;&lt;/strong&gt;&lt;/font&gt;&lt;/div&gt;&lt;div&gt;&lt;font&gt;&lt;strong data-end=&quot;480&quot; data-start=&quot;465&quot;&gt;&lt;font&gt;&lt;font&gt;&lt;span style=&quot;white-space: pre;&quot;&gt;&#x9;&lt;/span&gt;&lt;span style=&quot;white-space: pre;&quot;&gt;&#x9;&lt;/span&gt;FAST5_TO_POD5&lt;br&gt;&lt;/font&gt;&lt;/font&gt;&lt;/strong&gt;&lt;/font&gt;&lt;/div&gt;&lt;div&gt;&lt;font&gt;&lt;strong data-end=&quot;480&quot; data-start=&quot;465&quot;&gt;&lt;font&gt;&lt;font&gt;&lt;span style=&quot;white-space: pre;&quot;&gt;&#x9;&lt;/span&gt;&lt;span style=&quot;white-space: pre;&quot;&gt;&#x9;&lt;/span&gt;BASECALL_CPU_DEMUX&lt;br&gt;&lt;/font&gt;&lt;/font&gt;&lt;/strong&gt;&lt;/font&gt;&lt;/div&gt;&lt;div&gt;&lt;font&gt;&lt;strong data-end=&quot;480&quot; data-start=&quot;465&quot;&gt;&lt;font&gt;&lt;font&gt;&lt;span style=&quot;white-space: pre;&quot;&gt;&#x9;&lt;/span&gt;&lt;span style=&quot;white-space: pre;&quot;&gt;&#x9;BASECALL_CPU&lt;/span&gt;&lt;span style=&quot;white-space: pre;&quot;&gt;&#x9;&lt;/span&gt;&lt;span style=&quot;white-space: pre;&quot;&gt;&#x9;&lt;/span&gt;&lt;span style=&quot;white-space: pre;&quot;&gt;&#x9;&lt;/span&gt;&lt;span style=&quot;white-space: pre;&quot;&gt;&#x9;&lt;/span&gt;&lt;span style=&quot;white-space: pre;&quot;&gt;&#x9;&lt;/span&gt;&lt;span style=&quot;white-space: pre;&quot;&gt;&#x9;&lt;/span&gt;&lt;span style=&quot;white-space: pre;&quot;&gt;&#x9;&lt;/span&gt;&lt;span style=&quot;white-space: pre;&quot;&gt;&#x9;&lt;/span&gt;&lt;span style=&quot;white-space: pre;&quot;&gt;&#x9;&lt;/span&gt;&lt;br&gt;&lt;/font&gt;&lt;/font&gt;&lt;/strong&gt;&lt;/font&gt;&lt;/div&gt;&lt;div&gt;&lt;font&gt;&lt;strong data-end=&quot;480&quot; data-start=&quot;465&quot;&gt;&lt;font&gt;&lt;font&gt;&lt;span style=&quot;white-space: pre;&quot;&gt;&#x9;&lt;span style=&quot;white-space: pre;&quot;&gt;&#x9;&lt;/span&gt;&lt;/span&gt;&lt;/font&gt;&lt;/font&gt;BASECALL GPU_DEMUX&lt;br&gt;&lt;/strong&gt;&lt;/font&gt;&lt;/div&gt;&lt;div&gt;&lt;font&gt;&lt;strong data-end=&quot;480&quot; data-start=&quot;465&quot;&gt;&lt;font&gt;&lt;font&gt;&lt;span style=&quot;white-space: pre;&quot;&gt;&#x9;&lt;/span&gt;&lt;span style=&quot;white-space: pre;&quot;&gt;&#x9;&lt;/span&gt;BASECALL_GPU&lt;br&gt;&lt;/font&gt;&lt;/font&gt;&lt;/strong&gt;&lt;/font&gt;&lt;/div&gt;&lt;div&gt;&lt;font&gt;&lt;strong data-end=&quot;480&quot; data-start=&quot;465&quot;&gt;&lt;font&gt;&lt;font&gt;&lt;br&gt;&lt;/font&gt;&lt;/font&gt;&lt;/strong&gt;&lt;/font&gt;&lt;/div&gt;&lt;div&gt;&lt;font&gt;&lt;strong data-end=&quot;480&quot; data-start=&quot;465&quot;&gt;&lt;font&gt;&lt;font&gt;&lt;span style=&quot;white-space: pre;&quot;&gt;&#x9;&lt;/span&gt;&lt;span style=&quot;white-space: pre;&quot;&gt;&#x9;&lt;/span&gt;&lt;br&gt;&lt;/font&gt;&lt;/font&gt;&lt;/strong&gt;&lt;/font&gt;&lt;/div&gt;&lt;div&gt;&lt;font&gt;&lt;strong data-end=&quot;480&quot; data-start=&quot;465&quot;&gt;&lt;font&gt;&lt;font&gt;&lt;br&gt;&lt;/font&gt;&lt;/font&gt;&lt;/strong&gt;&lt;/font&gt;&lt;/div&gt;&lt;div&gt;&lt;font&gt;&lt;strong data-end=&quot;480&quot; data-start=&quot;465&quot;&gt;&lt;font&gt;&lt;font&gt;&lt;br&gt;&lt;/font&gt;&lt;/font&gt;&lt;/strong&gt;&lt;/font&gt;&lt;/div&gt;&lt;div&gt;&lt;font&gt;&lt;sup&gt;&lt;strong data-end=&quot;480&quot; data-start=&quot;465&quot;&gt;&lt;span style=&quot;white-space: pre;&quot;&gt;&#x9;&lt;/span&gt;&lt;span style=&quot;white-space: pre;&quot;&gt;&#x9;&lt;/span&gt;&lt;/strong&gt;&lt;/sup&gt;&lt;/font&gt;&lt;/div&gt;" style="rounded=0;whiteSpace=wrap;html=1;align=left;fillColor=#33FFFF;fontFamily=Helvetica;fontSize=14;fontStyle=0" parent="1" vertex="1">
          <mxGeometry x="12.5" y="-320" width="265" height="280" as="geometry" />
        </mxCell>
        <mxCell id="yUYCpwI-ni2RMW_3PlUK-13" value="&lt;div&gt;&lt;font&gt;&lt;strong data-end=&quot;480&quot; data-start=&quot;465&quot;&gt;&lt;font&gt;&lt;br&gt;&lt;/font&gt;&lt;/strong&gt;&lt;/font&gt;&lt;/div&gt;&lt;div&gt;&lt;font&gt;&lt;strong data-end=&quot;480&quot; data-start=&quot;465&quot;&gt;&lt;font&gt;&lt;br&gt;&lt;/font&gt;&lt;/strong&gt;&lt;/font&gt;&lt;/div&gt;&lt;div&gt;&lt;font&gt;&lt;strong data-end=&quot;480&quot; data-start=&quot;465&quot;&gt;&lt;font&gt;&lt;br&gt;&lt;/font&gt;&lt;/strong&gt;&lt;/font&gt;&lt;/div&gt;&lt;div&gt;&lt;font&gt;&lt;strong data-end=&quot;480&quot; data-start=&quot;465&quot;&gt;&lt;font&gt;&lt;br&gt;&lt;/font&gt;&lt;/strong&gt;&lt;/font&gt;&lt;/div&gt;&lt;div&gt;&lt;font style=&quot;font-size: 17px;&quot;&gt;&lt;strong data-end=&quot;480&quot; data-start=&quot;465&quot;&gt;&lt;font&gt;FILTERING_AND_QC_FROM_&lt;/font&gt;&lt;/strong&gt;&lt;/font&gt;&lt;/div&gt;&lt;div&gt;&lt;font style=&quot;font-size: 17px;&quot;&gt;&lt;strong data-end=&quot;480&quot; data-start=&quot;465&quot;&gt;&lt;font&gt;MINK NOW.NF&lt;/font&gt;&lt;/strong&gt;&lt;/font&gt;&lt;div&gt;&lt;div align=&quot;left&quot;&gt;&lt;font&gt;&lt;span data-start=&quot;1936&quot; data-end=&quot;1976&quot;&gt;&lt;b&gt;SUB-WORKFLOW&lt;br&gt;&lt;/b&gt;&lt;/span&gt;&lt;/font&gt;&lt;/div&gt;&lt;/div&gt;&lt;div&gt;&lt;font style=&quot;font-size: 15px;&quot;&gt;&lt;strong data-end=&quot;480&quot; data-start=&quot;465&quot;&gt;&lt;font&gt;&lt;br&gt;&lt;/font&gt;&lt;/strong&gt;&lt;/font&gt;&lt;/div&gt;&lt;/div&gt;&lt;div&gt;&lt;font&gt;&lt;strong data-end=&quot;480&quot; data-start=&quot;465&quot;&gt;&lt;font&gt;&lt;br&gt;&lt;/font&gt;&lt;/strong&gt;&lt;/font&gt;&lt;/div&gt;&lt;div&gt;&lt;font&gt;&lt;strong data-end=&quot;480&quot; data-start=&quot;465&quot;&gt;&lt;font&gt;&lt;span style=&quot;white-space: pre;&quot;&gt;&#x9;&lt;span style=&quot;white-space: pre;&quot;&gt;&#x9;&lt;/span&gt;&lt;/span&gt;&lt;font&gt;IMPORTANDO PROCESSOS:&lt;/font&gt;&lt;font&gt;&lt;br&gt;&lt;/font&gt;&lt;/font&gt;&lt;/strong&gt;&lt;/font&gt;&lt;/div&gt;&lt;div&gt;&lt;font&gt;&lt;strong data-end=&quot;480&quot; data-start=&quot;465&quot;&gt;&lt;font&gt;&lt;font&gt;&lt;span style=&quot;white-space: pre;&quot;&gt;&#x9;&lt;/span&gt;&lt;span style=&quot;white-space: pre;&quot;&gt;&#x9;&lt;/span&gt;&lt;span style=&quot;white-space: pre;&quot;&gt;&lt;br&gt;&lt;/span&gt;&lt;/font&gt;&lt;/font&gt;&lt;/strong&gt;&lt;/font&gt;&lt;/div&gt;&lt;div&gt;&lt;font&gt;&lt;strong data-end=&quot;480&quot; data-start=&quot;465&quot;&gt;&lt;font&gt;&lt;font&gt;&lt;span style=&quot;white-space: pre;&quot;&gt;&lt;span style=&quot;white-space: pre;&quot;&gt;&#x9;&lt;/span&gt;&lt;span style=&quot;white-space: pre;&quot;&gt;&#x9;&lt;/span&gt;CONVERT_INPUT_FROM&lt;/span&gt;&lt;/font&gt;&lt;/font&gt;&lt;/strong&gt;&lt;/font&gt;&lt;/div&gt;&lt;div&gt;&lt;font&gt;&lt;strong data-end=&quot;480&quot; data-start=&quot;465&quot;&gt;&lt;font&gt;&lt;font&gt;&lt;span style=&quot;white-space: pre;&quot;&gt;&lt;span style=&quot;white-space: pre;&quot;&gt;&#x9;&lt;/span&gt;&lt;span style=&quot;white-space: pre;&quot;&gt;&#x9;&lt;/span&gt;_MIKNOW_BARCODED/&#x9;&lt;/span&gt;&lt;span style=&quot;white-space: pre;&quot;&gt;&#x9;&lt;/span&gt;&lt;span style=&quot;white-space: pre;&quot;&gt;&#x9;&lt;/span&gt;&lt;span style=&quot;white-space: pre;&quot;&gt;&#x9;&lt;/span&gt;&lt;span style=&quot;white-space: pre;&quot;&gt;&#x9;&lt;/span&gt;&lt;span style=&quot;white-space: pre;&quot;&gt;&#x9;&lt;/span&gt;&lt;span style=&quot;white-space: pre;&quot;&gt;&#x9;&lt;/span&gt;&lt;span style=&quot;white-space: pre;&quot;&gt;&#x9;&lt;/span&gt;&lt;span style=&quot;white-space: pre;&quot;&gt;&#x9;&lt;/span&gt;&lt;br&gt;&lt;/font&gt;&lt;/font&gt;&lt;/strong&gt;&lt;/font&gt;&lt;/div&gt;&lt;div&gt;&lt;font&gt;&lt;strong data-end=&quot;480&quot; data-start=&quot;465&quot;&gt;&lt;font&gt;&lt;font&gt;&lt;span style=&quot;white-space: pre;&quot;&gt;&#x9;&lt;/span&gt;&amp;nbsp;&amp;nbsp;&amp;nbsp;&amp;nbsp;&amp;nbsp;&amp;nbsp;&amp;nbsp; &lt;/font&gt;&lt;/font&gt;&lt;/strong&gt;&lt;/font&gt;&lt;font&gt;&lt;strong data-end=&quot;480&quot; data-start=&quot;465&quot;&gt;&lt;font&gt;&lt;font&gt;&lt;span style=&quot;white-space: pre;&quot;&gt;&lt;span style=&quot;white-space: pre;&quot;&gt;&lt;/span&gt;CONVERT_INPUT_FROM&lt;/span&gt;&lt;/font&gt;&lt;/font&gt;&lt;/strong&gt;&lt;/font&gt;&lt;div&gt;&lt;font&gt;&lt;strong data-end=&quot;480&quot; data-start=&quot;465&quot;&gt;&lt;font&gt;&lt;font&gt;&lt;span style=&quot;white-space: pre;&quot;&gt;&lt;span style=&quot;white-space: pre;&quot;&gt;&#x9;&lt;/span&gt;&lt;span style=&quot;white-space: pre;&quot;&gt;&#x9;&lt;/span&gt;_MIKNOW_NOT_BARCODED&lt;/span&gt;&lt;/font&gt;&lt;/font&gt;&lt;/strong&gt;&lt;/font&gt;&lt;/div&gt;&lt;div&gt;&lt;font&gt;&lt;strong data-end=&quot;480&quot; data-start=&quot;465&quot;&gt;&lt;font&gt;&lt;font&gt;&lt;span style=&quot;white-space: pre;&quot;&gt;&lt;span style=&quot;white-space: pre;&quot;&gt;&#x9;&lt;/span&gt;&lt;span style=&quot;white-space: pre;&quot;&gt;&#x9;&lt;/span&gt;FILTER_BAM&lt;br&gt;&lt;/span&gt;&lt;/font&gt;&lt;/font&gt;&lt;/strong&gt;&lt;/font&gt;&lt;/div&gt;&lt;/div&gt;&lt;div&gt;&lt;font&gt;&lt;strong data-end=&quot;480&quot; data-start=&quot;465&quot;&gt;&lt;font&gt;&lt;font&gt;&amp;nbsp;&amp;nbsp;&amp;nbsp;&amp;nbsp;&amp;nbsp;&amp;nbsp;&amp;nbsp;&amp;nbsp;&amp;nbsp;&amp;nbsp;&amp;nbsp;&amp;nbsp;&amp;nbsp;&amp;nbsp;&amp;nbsp; &lt;font&gt;PYCOQC_NO_FILTER&lt;/font&gt;&lt;/font&gt;&lt;/font&gt;&lt;/strong&gt;&lt;/font&gt;&lt;/div&gt;&lt;div&gt;&lt;font&gt;&lt;strong data-end=&quot;480&quot; data-start=&quot;465&quot;&gt;&lt;font&gt;&lt;font&gt;&lt;font&gt;&lt;span style=&quot;white-space: pre;&quot;&gt;&#x9;&lt;/span&gt;&lt;span style=&quot;white-space: pre;&quot;&gt;      &lt;/span&gt;&lt;/font&gt;&lt;/font&gt;&lt;/font&gt;&lt;/strong&gt;&lt;/font&gt;&lt;font&gt;&lt;strong data-end=&quot;480&quot; data-start=&quot;465&quot;&gt;&lt;font&gt;&lt;font&gt;&lt;font&gt;&amp;nbsp; PYCOQC_FILTER&lt;/font&gt;&lt;/font&gt;&lt;/font&gt;&lt;/strong&gt;&lt;/font&gt;&lt;font&gt;&lt;strong data-end=&quot;480&quot; data-start=&quot;465&quot;&gt;&lt;font&gt;&lt;font&gt;&lt;font&gt;&lt;span style=&quot;white-space: pre;&quot;&gt;&#x9;&lt;/span&gt;&lt;br&gt;&lt;/font&gt;&lt;/font&gt;&lt;/font&gt;&lt;/strong&gt;&lt;/font&gt;&lt;/div&gt;&lt;div&gt;&lt;font&gt;&lt;strong data-end=&quot;480&quot; data-start=&quot;465&quot;&gt;&lt;font&gt;&lt;font&gt;&lt;span style=&quot;white-space: pre;&quot;&gt;&#x9;&lt;/span&gt;&lt;span style=&quot;white-space: pre;&quot;&gt;&#x9;&lt;/span&gt;MAKE_QC_REPORT&lt;br&gt;&lt;/font&gt;&lt;/font&gt;&lt;/strong&gt;&lt;/font&gt;&lt;/div&gt;&lt;div&gt;&lt;font&gt;&lt;strong data-end=&quot;480&quot; data-start=&quot;465&quot;&gt;&lt;font&gt;&lt;font&gt;&lt;br&gt;&lt;/font&gt;&lt;/font&gt;&lt;/strong&gt;&lt;/font&gt;&lt;/div&gt;&lt;div&gt;&lt;font&gt;&lt;strong data-end=&quot;480&quot; data-start=&quot;465&quot;&gt;&lt;font&gt;&lt;font&gt;&lt;br&gt;&lt;/font&gt;&lt;/font&gt;&lt;/strong&gt;&lt;/font&gt;&lt;/div&gt;&lt;div&gt;&lt;font&gt;&lt;strong data-end=&quot;480&quot; data-start=&quot;465&quot;&gt;&lt;font&gt;&lt;font&gt;&lt;br&gt;&lt;/font&gt;&lt;/font&gt;&lt;/strong&gt;&lt;/font&gt;&lt;/div&gt;&lt;div&gt;&lt;font&gt;&lt;sup&gt;&lt;strong data-end=&quot;480&quot; data-start=&quot;465&quot;&gt;&lt;span style=&quot;white-space: pre;&quot;&gt;&#x9;&lt;/span&gt;&lt;span style=&quot;white-space: pre;&quot;&gt;&#x9;&lt;/span&gt;&lt;/strong&gt;&lt;/sup&gt;&lt;/font&gt;&lt;/div&gt;" style="rounded=0;whiteSpace=wrap;html=1;align=left;fillColor=#33FFFF;fontFamily=Helvetica;fontSize=14;fontStyle=0" parent="1" vertex="1">
          <mxGeometry x="1105" y="-340" width="265" height="280" as="geometry" />
        </mxCell>
        <mxCell id="yUYCpwI-ni2RMW_3PlUK-14" value="&lt;div&gt;&lt;font style=&quot;font-size: 17px;&quot;&gt;&lt;strong data-end=&quot;480&quot; data-start=&quot;465&quot;&gt;&lt;font&gt;FILTERING_AND_QC_&lt;/font&gt;&lt;/strong&gt;&lt;/font&gt;&lt;/div&gt;&lt;div&gt;&lt;font style=&quot;font-size: 17px;&quot;&gt;&lt;strong data-end=&quot;480&quot; data-start=&quot;465&quot;&gt;&lt;font&gt;FROM_STEP_1.NF&lt;/font&gt;&lt;/strong&gt;&lt;/font&gt;&lt;/div&gt;&lt;div&gt;&lt;div&gt;&lt;font&gt;&lt;span data-start=&quot;1936&quot; data-end=&quot;1976&quot;&gt;&lt;b&gt;SUB-WORKFLOW&lt;/b&gt;&lt;/span&gt;&lt;/font&gt;&lt;/div&gt;&lt;/div&gt;&lt;br&gt;&lt;div&gt;&lt;font&gt;&lt;strong data-end=&quot;480&quot; data-start=&quot;465&quot;&gt;&lt;font&gt;&lt;span style=&quot;white-space: pre;&quot;&gt;&#x9;&lt;/span&gt;&lt;font&gt;IMPORTANDO PROCESSOS:&lt;/font&gt;&lt;font&gt;&lt;br&gt;&lt;/font&gt;&lt;/font&gt;&lt;/strong&gt;&lt;/font&gt;&lt;/div&gt;&lt;div&gt;&lt;font&gt;&lt;strong data-end=&quot;480&quot; data-start=&quot;465&quot;&gt;&lt;font&gt;&lt;font&gt;&lt;br&gt;&lt;/font&gt;&lt;/font&gt;&lt;/strong&gt;&lt;/font&gt;&lt;/div&gt;&lt;div&gt;&lt;font&gt;&lt;strong data-end=&quot;480&quot; data-start=&quot;465&quot;&gt;&lt;font&gt;&lt;font&gt;&lt;span style=&quot;white-space: pre;&quot;&gt;&#x9;&lt;/span&gt;&lt;span style=&quot;white-space: pre;&quot;&gt;&#x9;&lt;/span&gt;FILTER_BAM&lt;br&gt;&lt;/font&gt;&lt;/font&gt;&lt;/strong&gt;&lt;/font&gt;&lt;/div&gt;&lt;div&gt;&lt;font&gt;&lt;strong data-end=&quot;480&quot; data-start=&quot;465&quot;&gt;&lt;font&gt;&lt;font&gt;&lt;span style=&quot;white-space: pre;&quot;&gt;&#x9;&lt;/span&gt;&lt;span style=&quot;white-space: pre;&quot;&gt;&#x9;&lt;/span&gt;PYCOQC_NO_FILTER&lt;br&gt;&lt;/font&gt;&lt;/font&gt;&lt;/strong&gt;&lt;/font&gt;&lt;/div&gt;&lt;div&gt;&lt;font&gt;&lt;strong data-end=&quot;480&quot; data-start=&quot;465&quot;&gt;&lt;font&gt;&lt;font&gt;&lt;span style=&quot;white-space: pre;&quot;&gt;&#x9;&lt;/span&gt;&amp;nbsp;&amp;nbsp;&amp;nbsp;&amp;nbsp;&amp;nbsp;&amp;nbsp;&amp;nbsp; PYCOQC_FILTER&lt;br&gt;&lt;/font&gt;&lt;/font&gt;&lt;/strong&gt;&lt;/font&gt;&lt;/div&gt;&lt;div&gt;&lt;font&gt;&lt;strong data-end=&quot;480&quot; data-start=&quot;465&quot;&gt;&lt;font&gt;&lt;font&gt;&lt;span style=&quot;white-space: pre;&quot;&gt;&#x9;&lt;/span&gt;&lt;span style=&quot;white-space: pre;&quot;&gt;&#x9;&lt;/span&gt;&lt;span style=&quot;white-space: pre;&quot;&gt;MAKE_QC_REPORT&lt;/span&gt;&lt;span style=&quot;white-space: pre;&quot;&gt;&#x9;&lt;/span&gt;&lt;/font&gt;&lt;/font&gt;&lt;/strong&gt;&lt;/font&gt;&lt;/div&gt;&lt;div&gt;&lt;font&gt;&lt;strong data-end=&quot;480&quot; data-start=&quot;465&quot;&gt;&lt;font&gt;&lt;font&gt;&lt;br&gt;&lt;/font&gt;&lt;/font&gt;&lt;/strong&gt;&lt;/font&gt;&lt;/div&gt;&lt;div&gt;&lt;font&gt;&lt;strong data-end=&quot;480&quot; data-start=&quot;465&quot;&gt;&lt;font&gt;&lt;font&gt;&lt;span style=&quot;white-space: pre;&quot;&gt;&lt;br&gt;&lt;/span&gt;&lt;/font&gt;&lt;/font&gt;&lt;/strong&gt;&lt;/font&gt;&lt;/div&gt;&lt;div&gt;&lt;font&gt;&lt;strong data-end=&quot;480&quot; data-start=&quot;465&quot;&gt;&lt;font&gt;&lt;font&gt;&lt;span style=&quot;white-space: pre;&quot;&gt;&#x9;&lt;/span&gt;&lt;span style=&quot;white-space: pre;&quot;&gt;&#x9;&lt;/span&gt;&lt;span style=&quot;white-space: pre;&quot;&gt;&#x9;&lt;/span&gt;&lt;span style=&quot;white-space: pre;&quot;&gt;&#x9;&lt;/span&gt;&lt;span style=&quot;white-space: pre;&quot;&gt;&#x9;&lt;/span&gt;&lt;span style=&quot;white-space: pre;&quot;&gt;&#x9;&lt;/span&gt;&lt;span style=&quot;white-space: pre;&quot;&gt;&#x9;&lt;/span&gt;&lt;br&gt;&lt;/font&gt;&lt;/font&gt;&lt;/strong&gt;&lt;/font&gt;&lt;/div&gt;&lt;div&gt;&lt;font&gt;&lt;strong data-end=&quot;480&quot; data-start=&quot;465&quot;&gt;&lt;font&gt;&lt;font&gt;&lt;span style=&quot;white-space: pre;&quot;&gt;&#x9;&lt;span style=&quot;white-space: pre;&quot;&gt;&#x9;&lt;/span&gt;&lt;/span&gt;&lt;/font&gt;&lt;/font&gt;&lt;br&gt;&lt;/strong&gt;&lt;/font&gt;&lt;/div&gt;&lt;div&gt;&lt;font&gt;&lt;sup&gt;&lt;strong data-end=&quot;480&quot; data-start=&quot;465&quot;&gt;&lt;span style=&quot;white-space: pre;&quot;&gt;&#x9;&lt;/span&gt;&lt;span style=&quot;white-space: pre;&quot;&gt;&#x9;&lt;/span&gt;&lt;/strong&gt;&lt;/sup&gt;&lt;/font&gt;&lt;/div&gt;" style="rounded=0;whiteSpace=wrap;html=1;align=left;fillColor=#33FFFF;fontFamily=Helvetica;fontSize=14;fontStyle=0" parent="1" vertex="1">
          <mxGeometry x="532.5" y="-320" width="265" height="280" as="geometry" />
        </mxCell>
        <mxCell id="yUYCpwI-ni2RMW_3PlUK-17" value="" style="endArrow=classic;html=1;rounded=0;entryX=0;entryY=0.5;entryDx=0;entryDy=0;" parent="1" source="yUYCpwI-ni2RMW_3PlUK-12" target="yUYCpwI-ni2RMW_3PlUK-1" edge="1">
          <mxGeometry width="50" height="50" relative="1" as="geometry">
            <mxPoint x="320" y="594.62" as="sourcePoint" />
            <mxPoint x="390" y="-700" as="targetPoint" />
            <Array as="points">
              <mxPoint x="140" y="-700" />
            </Array>
          </mxGeometry>
        </mxCell>
        <mxCell id="yUYCpwI-ni2RMW_3PlUK-21" value="" style="strokeWidth=2;html=1;shape=mxgraph.flowchart.annotation_2;align=left;labelPosition=right;pointerEvents=1;rotation=90;" parent="1" vertex="1">
          <mxGeometry x="490" y="960" height="110" as="geometry" />
        </mxCell>
        <mxCell id="yUYCpwI-ni2RMW_3PlUK-27" value="" style="rounded=0;whiteSpace=wrap;html=1;fillColor=#f8cecc;strokeColor=#b85450;movable=1;resizable=1;rotatable=1;deletable=1;editable=1;locked=0;connectable=1;" parent="1" vertex="1">
          <mxGeometry x="2010" y="-960" width="70" height="50" as="geometry" />
        </mxCell>
        <mxCell id="yUYCpwI-ni2RMW_3PlUK-28" value="&lt;font style=&quot;font-size: 24px;&quot;&gt;&lt;b&gt;Workflow&lt;/b&gt;&lt;span data-end=&quot;675&quot; data-start=&quot;642&quot;&gt;&lt;br&gt;&lt;/span&gt;&lt;/font&gt;" style="text;html=1;align=center;verticalAlign=middle;resizable=1;points=[];autosize=1;strokeColor=none;fillColor=none;movable=1;rotatable=1;deletable=1;editable=1;locked=0;connectable=1;" parent="1" vertex="1">
          <mxGeometry x="2130" y="-950" width="130" height="40" as="geometry" />
        </mxCell>
        <mxCell id="yUYCpwI-ni2RMW_3PlUK-29" value="" style="rounded=0;whiteSpace=wrap;html=1;fillColor=#00FFFF;movable=1;resizable=1;rotatable=1;deletable=1;editable=1;locked=0;connectable=1;" parent="1" vertex="1">
          <mxGeometry x="2010" y="-830" width="70" height="50" as="geometry" />
        </mxCell>
        <mxCell id="yUYCpwI-ni2RMW_3PlUK-30" value="&lt;div align=&quot;left&quot;&gt;&lt;font style=&quot;font-size: 24px;&quot;&gt;&lt;span data-start=&quot;1936&quot; data-end=&quot;1976&quot;&gt;&lt;b&gt;Sub-workflows&lt;/b&gt;&lt;/span&gt;&lt;/font&gt;&lt;/div&gt;" style="text;whiteSpace=wrap;html=1;align=left;movable=1;resizable=1;rotatable=1;deletable=1;editable=1;locked=0;connectable=1;" parent="1" vertex="1">
          <mxGeometry x="2120" y="-810" width="180" height="50" as="geometry" />
        </mxCell>
        <mxCell id="yUYCpwI-ni2RMW_3PlUK-31" value="" style="rounded=0;whiteSpace=wrap;html=1;fillColor=light-dark(#62a0ea, #319eff);movable=1;resizable=1;rotatable=1;deletable=1;editable=1;locked=0;connectable=1;" parent="1" vertex="1">
          <mxGeometry x="2010" y="-710" width="70" height="50" as="geometry" />
        </mxCell>
        <mxCell id="yUYCpwI-ni2RMW_3PlUK-32" value="&lt;b&gt;&lt;font style=&quot;font-size: 24px;&quot;&gt;Modules&lt;/font&gt;&lt;/b&gt;" style="text;whiteSpace=wrap;html=1;align=left;movable=1;resizable=1;rotatable=1;deletable=1;editable=1;locked=0;connectable=1;" parent="1" vertex="1">
          <mxGeometry x="2130" y="-700" width="180" height="50" as="geometry" />
        </mxCell>
        <mxCell id="yUYCpwI-ni2RMW_3PlUK-16" value="&lt;div&gt;&lt;font style=&quot;font-size: 17px;&quot;&gt;&lt;b&gt;&lt;font&gt;&lt;span data-end=&quot;480&quot; data-start=&quot;465&quot;&gt;&lt;font&gt;MODIKIT_AND_MULTIQC&lt;/font&gt;&lt;/span&gt;&lt;/font&gt;&lt;/b&gt;&lt;/font&gt;&lt;/div&gt;&lt;div&gt;&lt;font style=&quot;font-size: 17px;&quot;&gt;&lt;b&gt;&lt;font&gt;&lt;span data-end=&quot;480&quot; data-start=&quot;465&quot;&gt;&lt;font&gt;.NF&lt;/font&gt;&lt;/span&gt;&lt;/font&gt;&lt;/b&gt;&lt;/font&gt;&lt;/div&gt;&lt;div&gt;&lt;font style=&quot;font-size: 17px;&quot;&gt;&lt;b&gt;&lt;font&gt;&lt;span data-end=&quot;480&quot; data-start=&quot;465&quot;&gt;&lt;/span&gt;&lt;/font&gt;&lt;/b&gt;&lt;/font&gt;&lt;b&gt;&lt;font&gt;&lt;span data-start=&quot;1936&quot; data-end=&quot;1976&quot;&gt;SUB-WORKFLOW&lt;/span&gt;&lt;/font&gt;&lt;/b&gt;&lt;/div&gt;&lt;b&gt;&lt;br&gt;&lt;/b&gt;&lt;div&gt;&lt;b&gt;&lt;font&gt;&lt;span data-end=&quot;480&quot; data-start=&quot;465&quot;&gt;&lt;font&gt;&lt;span style=&quot;white-space: pre;&quot;&gt;&#x9;&lt;/span&gt;&lt;font&gt;IMPORTANDO PROCESSOS:&lt;/font&gt;&lt;font&gt;&lt;br&gt;&lt;/font&gt;&lt;/font&gt;&lt;/span&gt;&lt;/font&gt;&lt;/b&gt;&lt;/div&gt;&lt;div&gt;&lt;b&gt;&lt;font&gt;&lt;span data-end=&quot;480&quot; data-start=&quot;465&quot;&gt;&lt;font&gt;&lt;font&gt;&lt;br&gt;&lt;/font&gt;&lt;/font&gt;&lt;/span&gt;&lt;/font&gt;&lt;/b&gt;&lt;/div&gt;&lt;div&gt;&lt;b&gt;&lt;font&gt;&lt;span data-end=&quot;480&quot; data-start=&quot;465&quot;&gt;&lt;font&gt;&lt;font&gt;&lt;span style=&quot;white-space: pre;&quot;&gt;&#x9;&lt;/span&gt;&lt;span style=&quot;white-space: pre;&quot;&gt;&#x9;&lt;/span&gt;CALCULATE_COVERAGE&lt;br&gt;&lt;/font&gt;&lt;/font&gt;&lt;/span&gt;&lt;/font&gt;&lt;/b&gt;&lt;/div&gt;&lt;div&gt;&lt;b&gt;&lt;font&gt;&lt;span data-end=&quot;480&quot; data-start=&quot;465&quot;&gt;&lt;font&gt;&lt;font&gt;&lt;span style=&quot;white-space: pre;&quot;&gt;&#x9;&lt;/span&gt;&lt;span style=&quot;white-space: pre;&quot;&gt;&#x9;&lt;/span&gt;MERGE_COVERAGE&lt;br&gt;&lt;/font&gt;&lt;/font&gt;&lt;/span&gt;&lt;/font&gt;&lt;/b&gt;&lt;/div&gt;&lt;div&gt;&lt;b&gt;&lt;font&gt;&lt;span data-end=&quot;480&quot; data-start=&quot;465&quot;&gt;&lt;font&gt;&lt;font&gt;&lt;span style=&quot;white-space: pre;&quot;&gt;&#x9;&lt;/span&gt;&lt;span style=&quot;white-space: pre;&quot;&gt;&#x9;&lt;/span&gt;MERGE_QC_REPORT&lt;br&gt;&lt;/font&gt;&lt;/font&gt;&lt;/span&gt;&lt;/font&gt;&lt;/b&gt;&lt;/div&gt;&lt;div&gt;&lt;b&gt;&lt;font&gt;&lt;span data-end=&quot;480&quot; data-start=&quot;465&quot;&gt;&lt;font&gt;&lt;font&gt;&lt;span style=&quot;white-space: pre;&quot;&gt;&#x9;&lt;/span&gt;&lt;span style=&quot;white-space: pre;&quot;&gt;&#x9;&lt;/span&gt;MULTIQC&lt;/font&gt;&lt;/font&gt;&lt;/span&gt;&lt;span data-end=&quot;480&quot; data-start=&quot;465&quot;&gt;&lt;font&gt;&lt;font&gt;&lt;br&gt;&lt;/font&gt;&lt;/font&gt;&lt;/span&gt;&lt;/font&gt;&lt;/b&gt;&lt;/div&gt;&lt;div&gt;&lt;b&gt;&lt;font&gt;&lt;span data-end=&quot;480&quot; data-start=&quot;465&quot;&gt;&lt;font&gt;&lt;font&gt;&lt;span style=&quot;white-space: pre;&quot;&gt;&#x9;&lt;/span&gt;&amp;nbsp;&amp;nbsp;&amp;nbsp;&amp;nbsp; &lt;span style=&quot;white-space: pre;&quot;&gt;&#x9;&lt;/span&gt;MODKIT&lt;br&gt;&lt;/font&gt;&lt;/font&gt;&lt;/span&gt;&lt;/font&gt;&lt;/b&gt;&lt;/div&gt;&lt;div&gt;&lt;font&gt;&lt;strong data-end=&quot;480&quot; data-start=&quot;465&quot;&gt;&lt;br&gt;&lt;/strong&gt;&lt;/font&gt;&lt;/div&gt;&lt;div&gt;&lt;font&gt;&lt;strong data-end=&quot;480&quot; data-start=&quot;465&quot;&gt;&lt;font&gt;&lt;font&gt;&lt;br&gt;&lt;/font&gt;&lt;/font&gt;&lt;/strong&gt;&lt;/font&gt;&lt;/div&gt;&lt;div&gt;&lt;font&gt;&lt;sup&gt;&lt;strong data-end=&quot;480&quot; data-start=&quot;465&quot;&gt;&lt;span style=&quot;white-space: pre;&quot;&gt;&#x9;&lt;/span&gt;&lt;span style=&quot;white-space: pre;&quot;&gt;&#x9;&lt;/span&gt;&lt;/strong&gt;&lt;/sup&gt;&lt;/font&gt;&lt;/div&gt;&lt;div&gt;&lt;font&gt;&lt;sup&gt;&lt;strong data-end=&quot;480&quot; data-start=&quot;465&quot;&gt;&lt;span style=&quot;white-space: pre;&quot;&gt;&lt;br&gt;&lt;/span&gt;&lt;/strong&gt;&lt;/sup&gt;&lt;/font&gt;&lt;/div&gt;" style="rounded=0;whiteSpace=wrap;html=1;align=left;fillColor=#33FFFF;fontFamily=Helvetica;fontSize=14;fontStyle=0" parent="1" vertex="1">
          <mxGeometry x="1815" y="-310" width="265" height="280" as="geometry" />
        </mxCell>
        <mxCell id="yUYCpwI-ni2RMW_3PlUK-38" value="" style="endArrow=classic;html=1;rounded=0;exitX=0.5;exitY=0;exitDx=0;exitDy=0;targetPerimeterSpacing=0;endSize=8;entryX=0.5;entryY=1;entryDx=0;entryDy=0;" parent="1" source="yUYCpwI-ni2RMW_3PlUK-14" target="yUYCpwI-ni2RMW_3PlUK-1" edge="1">
          <mxGeometry width="50" height="50" relative="1" as="geometry">
            <mxPoint x="536.7399999999998" y="-350" as="sourcePoint" />
            <mxPoint x="538.2677777777774" y="-570" as="targetPoint" />
          </mxGeometry>
        </mxCell>
        <mxCell id="yUYCpwI-ni2RMW_3PlUK-40" value="" style="endArrow=classic;html=1;rounded=0;exitX=0.5;exitY=0;exitDx=0;exitDy=0;elbow=vertical;entryX=1;entryY=0.5;entryDx=0;entryDy=0;" parent="1" source="yUYCpwI-ni2RMW_3PlUK-13" target="yUYCpwI-ni2RMW_3PlUK-1" edge="1">
          <mxGeometry width="50" height="50" relative="1" as="geometry">
            <mxPoint x="670" y="-420" as="sourcePoint" />
            <mxPoint x="890" y="-700" as="targetPoint" />
            <Array as="points">
              <mxPoint x="1233" y="-700" />
            </Array>
          </mxGeometry>
        </mxCell>
        <mxCell id="yUYCpwI-ni2RMW_3PlUK-42" value="" style="endArrow=classic;html=1;rounded=0;elbow=vertical;entryX=1;entryY=0;entryDx=0;entryDy=0;" parent="1" source="yUYCpwI-ni2RMW_3PlUK-16" target="yUYCpwI-ni2RMW_3PlUK-1" edge="1">
          <mxGeometry width="50" height="50" relative="1" as="geometry">
            <mxPoint x="1228" y="-330" as="sourcePoint" />
            <mxPoint x="900" y="-1028.5714285714287" as="targetPoint" />
            <Array as="points">
              <mxPoint x="1953" y="-830" />
            </Array>
          </mxGeometry>
        </mxCell>
        <mxCell id="yUYCpwI-ni2RMW_3PlUK-43" value="" style="endArrow=classic;html=1;rounded=0;" parent="1" source="yUYCpwI-ni2RMW_3PlUK-3" target="yUYCpwI-ni2RMW_3PlUK-12" edge="1">
          <mxGeometry width="50" height="50" relative="1" as="geometry">
            <mxPoint x="140" y="30" as="sourcePoint" />
            <mxPoint x="126" y="-40" as="targetPoint" />
          </mxGeometry>
        </mxCell>
        <mxCell id="yUYCpwI-ni2RMW_3PlUK-56" value="" style="strokeWidth=2;html=1;shape=mxgraph.flowchart.annotation_2;align=left;labelPosition=right;pointerEvents=1;rotation=90;" parent="1" vertex="1">
          <mxGeometry x="615" y="120" width="100" height="160" as="geometry" />
        </mxCell>
        <mxCell id="yUYCpwI-ni2RMW_3PlUK-62" value="" style="endArrow=classic;html=1;rounded=0;exitX=0;exitY=0.5;exitDx=0;exitDy=0;exitPerimeter=0;entryX=0.5;entryY=1;entryDx=0;entryDy=0;" parent="1" source="yUYCpwI-ni2RMW_3PlUK-56" target="yUYCpwI-ni2RMW_3PlUK-14" edge="1">
          <mxGeometry width="50" height="50" relative="1" as="geometry">
            <mxPoint x="520" y="120" as="sourcePoint" />
            <mxPoint x="570" y="70" as="targetPoint" />
          </mxGeometry>
        </mxCell>
        <mxCell id="yUYCpwI-ni2RMW_3PlUK-63" value="" style="endArrow=none;html=1;rounded=0;exitX=0.5;exitY=0;exitDx=0;exitDy=0;entryX=1;entryY=1;entryDx=0;entryDy=0;entryPerimeter=0;" parent="1" source="yUYCpwI-ni2RMW_3PlUK-6" target="yUYCpwI-ni2RMW_3PlUK-56" edge="1">
          <mxGeometry width="50" height="50" relative="1" as="geometry">
            <mxPoint x="600" y="240" as="sourcePoint" />
            <mxPoint x="640" y="200" as="targetPoint" />
          </mxGeometry>
        </mxCell>
        <mxCell id="yUYCpwI-ni2RMW_3PlUK-64" value="" style="endArrow=none;html=1;rounded=0;exitX=0.5;exitY=0;exitDx=0;exitDy=0;entryX=1;entryY=0;entryDx=0;entryDy=0;entryPerimeter=0;" parent="1" source="yUYCpwI-ni2RMW_3PlUK-11" target="yUYCpwI-ni2RMW_3PlUK-56" edge="1">
          <mxGeometry width="50" height="50" relative="1" as="geometry">
            <mxPoint x="750" y="420" as="sourcePoint" />
            <mxPoint x="1015" y="195" as="targetPoint" />
          </mxGeometry>
        </mxCell>
        <mxCell id="yUYCpwI-ni2RMW_3PlUK-65" value="" style="endArrow=none;html=1;rounded=0;exitX=0.442;exitY=0.011;exitDx=0;exitDy=0;exitPerimeter=0;entryX=0.527;entryY=0.5;entryDx=0;entryDy=0;entryPerimeter=0;" parent="1" source="yUYCpwI-ni2RMW_3PlUK-10" target="yUYCpwI-ni2RMW_3PlUK-56" edge="1">
          <mxGeometry width="50" height="50" relative="1" as="geometry">
            <mxPoint x="1030" y="430" as="sourcePoint" />
            <mxPoint x="695" y="195" as="targetPoint" />
          </mxGeometry>
        </mxCell>
        <mxCell id="yUYCpwI-ni2RMW_3PlUK-66" value="" style="strokeWidth=2;html=1;shape=mxgraph.flowchart.annotation_2;align=left;labelPosition=right;pointerEvents=1;rotation=90;" parent="1" vertex="1">
          <mxGeometry x="1170" width="100" height="160" as="geometry" />
        </mxCell>
        <mxCell id="yUYCpwI-ni2RMW_3PlUK-67" value="" style="endArrow=none;html=1;rounded=0;entryX=1;entryY=0;entryDx=0;entryDy=0;entryPerimeter=0;exitX=0.5;exitY=0;exitDx=0;exitDy=0;" parent="1" source="yUYCpwI-ni2RMW_3PlUK-5" target="yUYCpwI-ni2RMW_3PlUK-66" edge="1">
          <mxGeometry width="50" height="50" relative="1" as="geometry">
            <mxPoint x="1500" y="210" as="sourcePoint" />
            <mxPoint x="1320" y="80" as="targetPoint" />
          </mxGeometry>
        </mxCell>
        <mxCell id="yUYCpwI-ni2RMW_3PlUK-69" value="" style="endArrow=classic;html=1;rounded=0;exitX=0.5;exitY=0;exitDx=0;exitDy=0;exitPerimeter=0;entryX=1;entryY=1;entryDx=0;entryDy=0;entryPerimeter=0;" parent="1" source="yUYCpwI-ni2RMW_3PlUK-56" target="yUYCpwI-ni2RMW_3PlUK-66" edge="1">
          <mxGeometry width="50" height="50" relative="1" as="geometry">
            <mxPoint x="1090" y="80" as="sourcePoint" />
            <mxPoint x="1140" y="30" as="targetPoint" />
          </mxGeometry>
        </mxCell>
        <mxCell id="yUYCpwI-ni2RMW_3PlUK-70" value="" style="endArrow=classic;html=1;rounded=0;exitX=0;exitY=0.5;exitDx=0;exitDy=0;exitPerimeter=0;" parent="1" source="yUYCpwI-ni2RMW_3PlUK-66" target="yUYCpwI-ni2RMW_3PlUK-13" edge="1">
          <mxGeometry width="50" height="50" relative="1" as="geometry">
            <mxPoint x="1225" y="30" as="sourcePoint" />
            <mxPoint x="1140" y="30" as="targetPoint" />
          </mxGeometry>
        </mxCell>
        <mxCell id="yUYCpwI-ni2RMW_3PlUK-76" value="" style="strokeWidth=2;html=1;shape=mxgraph.flowchart.annotation_2;align=left;labelPosition=right;pointerEvents=1;rotation=90;" parent="1" vertex="1">
          <mxGeometry x="1896.25" y="51.25" width="102.5" height="160" as="geometry" />
        </mxCell>
        <mxCell id="yUYCpwI-ni2RMW_3PlUK-77" value="" style="endArrow=classic;html=1;rounded=0;exitX=0;exitY=0.5;exitDx=0;exitDy=0;exitPerimeter=0;entryX=0.5;entryY=1;entryDx=0;entryDy=0;" parent="1" source="yUYCpwI-ni2RMW_3PlUK-76" target="yUYCpwI-ni2RMW_3PlUK-16" edge="1">
          <mxGeometry width="50" height="50" relative="1" as="geometry">
            <mxPoint x="1951.3899999999999" y="160" as="sourcePoint" />
            <mxPoint x="1951.3899999999999" y="-20" as="targetPoint" />
          </mxGeometry>
        </mxCell>
        <mxCell id="yUYCpwI-ni2RMW_3PlUK-78" value="" style="endArrow=none;html=1;rounded=0;entryX=1;entryY=0;entryDx=0;entryDy=0;entryPerimeter=0;exitX=0.5;exitY=0;exitDx=0;exitDy=0;" parent="1" source="yUYCpwI-ni2RMW_3PlUK-8" target="yUYCpwI-ni2RMW_3PlUK-76" edge="1">
          <mxGeometry width="50" height="50" relative="1" as="geometry">
            <mxPoint x="2700" y="460" as="sourcePoint" />
            <mxPoint x="2510" y="370" as="targetPoint" />
          </mxGeometry>
        </mxCell>
        <mxCell id="yUYCpwI-ni2RMW_3PlUK-82" value="" style="endArrow=none;html=1;rounded=0;exitX=0.454;exitY=0.014;exitDx=0;exitDy=0;exitPerimeter=0;entryX=0.507;entryY=0.547;entryDx=0;entryDy=0;entryPerimeter=0;" parent="1" source="yUYCpwI-ni2RMW_3PlUK-9" target="yUYCpwI-ni2RMW_3PlUK-76" edge="1">
          <mxGeometry width="50" height="50" relative="1" as="geometry">
            <mxPoint x="2340" y="410" as="sourcePoint" />
            <mxPoint x="1960" y="160" as="targetPoint" />
            <Array as="points">
              <mxPoint x="2140" y="320" />
            </Array>
          </mxGeometry>
        </mxCell>
        <mxCell id="yUYCpwI-ni2RMW_3PlUK-83" value="" style="endArrow=none;html=1;rounded=0;entryX=0.507;entryY=0.472;entryDx=0;entryDy=0;entryPerimeter=0;exitX=0.056;exitY=0.021;exitDx=0;exitDy=0;exitPerimeter=0;" parent="1" source="yUYCpwI-ni2RMW_3PlUK-4" target="yUYCpwI-ni2RMW_3PlUK-76" edge="1">
          <mxGeometry width="50" height="50" relative="1" as="geometry">
            <mxPoint x="1960" y="447" as="sourcePoint" />
            <mxPoint x="1950" y="150" as="targetPoint" />
          </mxGeometry>
        </mxCell>
        <mxCell id="yUYCpwI-ni2RMW_3PlUK-84" value="" style="endArrow=classic;html=1;rounded=0;entryX=1;entryY=0.5;entryDx=0;entryDy=0;exitX=1;exitY=1;exitDx=0;exitDy=0;exitPerimeter=0;" parent="1" source="yUYCpwI-ni2RMW_3PlUK-76" target="yUYCpwI-ni2RMW_3PlUK-10" edge="1">
          <mxGeometry width="50" height="50" relative="1" as="geometry">
            <mxPoint x="950" y="1350" as="sourcePoint" />
            <mxPoint x="1080" y="940" as="targetPoint" />
            <Array as="points">
              <mxPoint x="1868" y="1150" />
            </Array>
          </mxGeometry>
        </mxCell>
      </root>
    </mxGraphModel>
  </diagram>
</mxfile>
